<svg xmlns="http://www.w3.org/2000/svg" xmlns:xlink="http://www.w3.org/1999/xlink" width="51.32" height="47.826" viewBox="0 0 51.32 47.826"><defs><style>.a{fill:url(#a);}</style><linearGradient id="a" x1="0.5" x2="0.5" y2="1" gradientUnits="objectBoundingBox"><stop offset="0" stop-color="#6055e0"/><stop offset="1" stop-color="#0ed7ce"/></linearGradient></defs><g transform="translate(-9 -25.634)"><path class="a" d="M57.195,46.242H54.607a2.549,2.549,0,0,0-2.433-1.87H49.412V37.616a.713.713,0,0,0-.348-.63L29.578,25.731a.72.72,0,0,0-.723,0L9.361,36.987a.725.725,0,0,0-.362.63V60.127a.727.727,0,0,0,.364.63L28.858,72.012a.727.727,0,0,0,.364.1.765.765,0,0,0,.374-.1L39.855,66.1v4.277A3.079,3.079,0,0,0,42.96,73.46H57.195a3.1,3.1,0,0,0,3.125-3.087v-21A3.137,3.137,0,0,0,57.195,46.242ZM52.2,45.826a1.056,1.056,0,0,1,1.056,1.056v.07A1.056,1.056,0,0,1,52.2,48.008H47.974a1.056,1.056,0,0,1-1.056-1.056v-.07a1.056,1.056,0,0,1,1.056-1.056ZM29.222,27.2l8.1,4.677L19.283,42.292l-8.1-4.677Zm-.691,42.922L10.454,59.707V38.874L28.531,49.29Zm.691-22.092-8.484-4.9L38.777,32.717l8.485,4.9Zm10.632,1.347V64.416l-9.869,5.707V49.29L47.958,38.874v5.5h.023a2.549,2.549,0,0,0-2.433,1.87H42.96A3.12,3.12,0,0,0,39.855,49.377Zm19.011,21a1.641,1.641,0,0,1-1.671,1.633H42.96a1.624,1.624,0,0,1-1.651-1.633v-21A1.664,1.664,0,0,1,42.96,47.7h2.616a2.487,2.487,0,0,0,2.4,1.766h4.194a2.487,2.487,0,0,0,2.4-1.766h2.616a1.682,1.682,0,0,1,1.671,1.681Z"/><path class="a" d="M337.722,282.883h.761a.727.727,0,1,0,0-1.454h-.029v-1.974h2.006a.7.7,0,0,0,.691.491.729.729,0,0,0,.731-.726v-.489a.737.737,0,0,0-.735-.731h-3.426a.726.726,0,0,0-.722.731v3.426a.722.722,0,0,0,.722.726Z" transform="translate(-293.925 -226.149)"/><path class="a" d="M337.727,346.883h3.428a.727.727,0,0,0,.727-.727v-3.428a.727.727,0,0,0-.727-.727h-3.428a.727.727,0,0,0-.727.727v3.428A.727.727,0,0,0,337.727,346.883Zm.727-3.428h1.974v1.974h-1.974Z" transform="translate(-293.925 -283.5)"/><path class="a" d="M338.483,409.428h-.029v-1.974h1.966a.731.731,0,1,0,1.462,0v-.7a.758.758,0,0,0-.735-.755h-3.426a.747.747,0,0,0-.722.755v3.426a.7.7,0,0,0,.722.7h.761a.727.727,0,0,0,0-1.454Z" transform="translate(-293.925 -340.851)"/><path class="a" d="M358.374,284.752l-2.13,2.13-.648-.648a.727.727,0,1,0-1.029,1.028l1.162,1.162a.727.727,0,0,0,1.028,0l2.644-2.644a.727.727,0,0,0-1.028-1.029Z" transform="translate(-309.477 -232.008)"/><path class="a" d="M358.374,414l-2.13,2.13-.648-.648a.727.727,0,1,0-1.029,1.028l1.162,1.162a.727.727,0,0,0,1.028,0l2.644-2.644A.727.727,0,0,0,358.374,414Z" transform="translate(-309.477 -347.83)"/><path class="a" d="M419.186,295h-4.568a.727.727,0,0,0,0,1.454h4.568a.727.727,0,0,0,0-1.454Z" transform="translate(-362.828 -241.382)"/><path class="a" d="M419.186,359h-4.568a.727.727,0,1,0,0,1.454h4.568a.727.727,0,1,0,0-1.454Z" transform="translate(-362.828 -298.734)"/><path class="a" d="M419.186,423h-4.568a.727.727,0,1,0,0,1.454h4.568a.727.727,0,1,0,0-1.454Z" transform="translate(-362.828 -356.085)"/></g></svg>