<svg xmlns="http://www.w3.org/2000/svg" xmlns:xlink="http://www.w3.org/1999/xlink" width="77.527" height="77.501" viewBox="0 0 77.527 77.501"><defs><style>.a{fill:url(#a);}</style><linearGradient id="a" x1="0.5" x2="0.5" y2="1" gradientUnits="objectBoundingBox"><stop offset="0" stop-color="#6055e0"/><stop offset="1" stop-color="#0ed7ce"/></linearGradient></defs><g transform="translate(0 0)"><path class="a" d="M274.948,54.468a7.343,7.343,0,1,0-7.343,7.343,7.351,7.351,0,0,0,7.343-7.343Zm-12.416,0a5.073,5.073,0,1,1,5.073,5.073A5.079,5.079,0,0,1,262.532,54.468Zm0,0" transform="translate(-220.853 -39.99)"/><path class="a" d="M203.072,57.188a1.135,1.135,0,1,0,0-2.27h-2.984a1.135,1.135,0,0,0,0,2.27Zm0,0" transform="translate(-168.828 -46.603)"/><path class="a" d="M51.916,57.188H67a1.135,1.135,0,0,0,0-2.27H51.916a1.135,1.135,0,1,0,0,2.27Zm0,0" transform="translate(-43.092 -46.603)"/><path class="a" d="M51.916,123.594h3.89a1.135,1.135,0,1,0,0-2.27h-3.89a1.135,1.135,0,1,0,0,2.27Zm0,0" transform="translate(-43.092 -102.953)"/><path class="a" d="M126.17,121.324a1.135,1.135,0,0,0,0,2.27h2.459a1.135,1.135,0,1,0,0-2.27Zm0,0" transform="translate(-106.103 -102.953)"/><path class="a" d="M51.916,90.391h25.42a1.135,1.135,0,1,0,0-2.27H51.916a1.135,1.135,0,1,0,0,2.27Zm0,0" transform="translate(-43.092 -74.778)"/><path class="a" d="M54.892,181.26H93.076a4.11,4.11,0,0,0,0-8.221H54.892a4.11,4.11,0,1,0,0,8.221Zm0-5.951H93.076a1.84,1.84,0,0,1,0,3.681H54.892a1.84,1.84,0,1,1,0-3.681Zm0,0" transform="translate(-43.092 -146.838)"/><path class="a" d="M54.892,250.022H93.076a4.111,4.111,0,0,0,0-8.221H54.892a4.111,4.111,0,1,0,0,8.221Zm0-5.951H93.076a1.84,1.84,0,0,1,0,3.681H54.892a1.84,1.84,0,1,1,0-3.681Zm0,0" transform="translate(-43.092 -205.188)"/><path class="a" d="M54.892,318.783H93.076a4.111,4.111,0,0,0,0-8.221H54.892a4.111,4.111,0,1,0,0,8.221Zm0-5.951H93.076a1.84,1.84,0,0,1,0,3.681H54.892a1.84,1.84,0,1,1,0-3.681Zm0,0" transform="translate(-43.092 -263.537)"/><path class="a" d="M54.892,387.545H81.677a4.111,4.111,0,1,0,0-8.221H54.892a4.111,4.111,0,1,0,0,8.221Zm0-5.951H81.677a1.84,1.84,0,0,1,0,3.681H54.892a1.84,1.84,0,1,1,0-3.681Zm0,0" transform="translate(-43.092 -321.887)"/><path class="a" d="M73.974,60.674H69.684V56.885a2.374,2.374,0,0,0-1.418-2.17l1.663-7.624a7.246,7.246,0,0,0-8.146-8.72V3.77A3.775,3.775,0,0,0,58.013,0H3.77A3.775,3.775,0,0,0,0,3.77V15.948a1.135,1.135,0,1,0,2.27,0V3.77a1.5,1.5,0,0,1,1.5-1.5H58.013a1.5,1.5,0,0,1,1.5,1.5V39.1a7.248,7.248,0,0,0-3.835,5.312,1.135,1.135,0,1,0,2.242.354,4.983,4.983,0,1,1,9.791,1.84l-1.725,7.906H59.7l-1.059-4.857a1.135,1.135,0,0,0-2.218.484l1,4.575A2.374,2.374,0,0,0,56,56.885v3.788H51.712a3.557,3.557,0,0,0-3.553,3.552v2.892a3.557,3.557,0,0,0,3.553,3.552h.06l.689,3.058a4.857,4.857,0,0,0,.614,1.5H3.77a1.5,1.5,0,0,1-1.5-1.5V21.156a1.135,1.135,0,1,0-2.27,0V73.73A3.776,3.776,0,0,0,3.77,77.5l64.756-.015a4.789,4.789,0,0,0,4.7-3.757l.689-3.058h.06a3.557,3.557,0,0,0,3.552-3.552V64.226a3.557,3.557,0,0,0-3.552-3.552Zm-15.7-3.788a.1.1,0,0,1,.1-.1h8.942a.1.1,0,0,1,.1.1v3.788H58.271ZM71.01,73.23a2.532,2.532,0,0,1-2.484,1.986H57.159a2.532,2.532,0,0,1-2.484-1.986L54.1,70.671H71.586Zm4.246-6.111A1.284,1.284,0,0,1,73.974,68.4H51.712a1.284,1.284,0,0,1-1.282-1.282V64.226a1.284,1.284,0,0,1,1.282-1.282H73.974a1.283,1.283,0,0,1,1.282,1.282Zm0,0" transform="translate(0 0)"/></g></svg>