<svg xmlns="http://www.w3.org/2000/svg" xmlns:xlink="http://www.w3.org/1999/xlink" width="80.482" height="92.096" viewBox="0 0 80.482 92.096"><defs><style>.a{fill:url(#a);}</style><linearGradient id="a" x1="0.5" x2="0.5" y2="1" gradientUnits="objectBoundingBox"><stop offset="0" stop-color="#6055e0"/><stop offset="1" stop-color="#0ed7ce"/></linearGradient></defs><g transform="matrix(0.951, 0.309, -0.309, 0.951, 23.956, 0)"><g transform="translate(0 0)"><path class="a" d="M58.3,11.276,48.186,1.138A3.851,3.851,0,0,0,45.442,0H3.876A3.876,3.876,0,0,0,0,3.876V73.648a3.876,3.876,0,0,0,3.876,3.876H55.559a3.876,3.876,0,0,0,3.876-3.876V14.014A3.851,3.851,0,0,0,58.3,11.276ZM56.851,73.648a1.292,1.292,0,0,1-1.292,1.292H3.876a1.292,1.292,0,0,1-1.292-1.292V3.876A1.292,1.292,0,0,1,3.876,2.584H45.222v9.044A3.876,3.876,0,0,0,49.1,15.5h5.168V12.921H49.1a1.292,1.292,0,0,1-1.292-1.292V4.416L56.474,13.1a1.281,1.281,0,0,1,.377.912Z"/><rect class="a" width="2.517" height="2.746" transform="translate(7.751 7.643)"/><rect class="a" width="25.856" height="2.746" transform="translate(13.014 7.643)"/><rect class="a" width="31.119" height="2.517" transform="translate(7.751 12.906)"/><rect class="a" width="2.517" height="2.746" transform="translate(7.751 23.203)"/><rect class="a" width="38.67" height="2.746" transform="translate(13.014 23.203)"/><rect class="a" width="43.932" height="2.517" transform="translate(7.751 30.982)"/><rect class="a" width="43.932" height="2.517" transform="translate(7.751 38.762)"/><rect class="a" width="43.932" height="2.517" transform="translate(7.751 46.542)"/><rect class="a" width="43.932" height="2.517" transform="translate(7.751 54.321)"/><rect class="a" width="43.932" height="2.517" transform="translate(7.751 62.101)"/></g></g></svg>