<svg xmlns="http://www.w3.org/2000/svg" xmlns:xlink="http://www.w3.org/1999/xlink" width="95.605" height="96.461" viewBox="0 0 95.605 96.461"><defs><style>.a{fill:url(#a);}</style><linearGradient id="a" x1="0.5" x2="0.5" y2="1" gradientUnits="objectBoundingBox"><stop offset="0" stop-color="#6055e0"/><stop offset="1" stop-color="#0ed7ce"/></linearGradient></defs><g transform="translate(-0.422 0)"><path class="a" d="M113,81.843c.118-1.26.2-2.521.2-3.8A37.189,37.189,0,1,0,76.019,115.26c1.1,0,2.205-.059,3.308-.138A25.015,25.015,0,1,0,113,81.843ZM49.474,99.98A34.293,34.293,0,0,1,41.6,79.421H54.2a50.077,50.077,0,0,0,2.54,14.828,36.978,36.978,0,0,0-7.266,5.731ZM56.74,61.836A49.461,49.461,0,0,0,54.2,76.664H41.6a34.335,34.335,0,0,1,7.877-20.558,35.554,35.554,0,0,0,7.266,5.73Zm45.706-5.809A34.35,34.35,0,0,1,110.4,76.664H97.8a49.831,49.831,0,0,0-2.56-14.907,36.581,36.581,0,0,0,7.208-5.731Zm-7.4,20.657H77.377V67.113a36.968,36.968,0,0,0,15.4-3.978A46.87,46.87,0,0,1,95.041,76.684ZM77.377,64.337v-20.3a31.892,31.892,0,0,1,14.435,16.5,34.265,34.265,0,0,1-14.435,3.8Zm-2.757,0a34.609,34.609,0,0,1-14.454-3.762A31.9,31.9,0,0,1,74.62,44.014Zm0,2.776v9.571H56.957A46.616,46.616,0,0,1,59.2,63.195,37.608,37.608,0,0,0,74.62,67.113ZM56.957,79.441H74.62v9.57A37.53,37.53,0,0,0,59.2,92.93,48.251,48.251,0,0,1,56.957,79.441Zm20.421,30.031a22.606,22.606,0,0,0,.611,2.265c-.2.118-.394.216-.611.335Zm-2.757-17.7V112.09A31.814,31.814,0,0,1,60.167,95.529,34.685,34.685,0,0,1,74.62,91.768Zm2.757,7.188V91.768c.886.04,1.772.1,2.658.2A24.666,24.666,0,0,0,77.377,98.955Zm5.2-10.692c-.217.275-.453.551-.67.827-.078.1-.138.2-.216.3a39.547,39.547,0,0,0-4.313-.414V79.441H95.041c0,.236-.019.492-.019.728-.039,0-.059.02-.1.02a24.791,24.791,0,0,0-12.347,8.074ZM97.8,79.441h.788c-.255.039-.532.078-.788.118Zm12.6,0c-.019.413-.039.847-.078,1.26a23.739,23.739,0,0,0-5.218-1.26Zm-9.806-25.462a33.172,33.172,0,0,1-6.361,5.159A35.58,35.58,0,0,0,82.99,44.329a34.478,34.478,0,0,1,17.605,9.649ZM69.028,44.329A35.613,35.613,0,0,0,57.744,59.217a34.227,34.227,0,0,1-6.42-5.14,34.406,34.406,0,0,1,17.7-9.748Zm-17.7,57.7a33.484,33.484,0,0,1,6.42-5.14,35.455,35.455,0,0,0,11.284,14.888,34.263,34.263,0,0,1-17.7-9.748Zm50.51,24.457a22.316,22.316,0,0,1-20.184-12.9,17.71,17.71,0,0,1-.689-1.674c-.078-.2-.138-.413-.216-.61a22.227,22.227,0,0,1,3.367-20.539c.2-.256.394-.512.591-.748a22.26,22.26,0,1,1,17.132,36.47Zm0,0" transform="translate(-30.837 -32.801)"/><path class="a" d="M3.179,223.211c0-.591.02-1.2.059-1.812l-2.757-.158c-.039.67-.059,1.319-.059,1.969,0,.355,0,.689.02,1.044l2.757-.1C3.179,223.841,3.179,223.527,3.179,223.211Zm0,0" transform="translate(0 -177.675)"/><path class="a" d="M30.563,328.543l-2.442,1.28c.63,1.2,1.3,2.363,2.028,3.505l2.324-1.477c-.689-1.064-1.319-2.186-1.91-3.308Zm0,0" transform="translate(-22.245 -263.846)"/><path class="a" d="M50.223,362.916c.827,1.083,1.693,2.127,2.6,3.112l2.048-1.851c-.846-.945-1.674-1.93-2.442-2.935Zm0,0" transform="translate(-39.994 -290.106)"/><path class="a" d="M5.24,255.043l-2.717.414c.177,1.2.452,2.5.788,3.958l2.678-.63c-.335-1.378-.571-2.619-.748-3.742Zm0,0" transform="translate(-1.688 -204.82)"/><path class="a" d="M14.74,292.844l-2.619.847c.414,1.28.886,2.56,1.418,3.8l2.541-1.083c-.512-1.162-.945-2.363-1.339-3.564Zm0,0" transform="translate(-9.395 -235.177)"/><path class="a" d="M111.031,405.432a41.469,41.469,0,0,1-13.154-2.875,39.2,39.2,0,0,1-5.179-2.521c-.591-.335-1.182-.708-1.753-1.083-.3-.177-.571-.374-.846-.571a44.321,44.321,0,0,1-3.585-2.737l-1.792,2.087a41.509,41.509,0,0,0,3.82,2.915c.3.2.611.414.906.611.61.394,1.241.788,1.89,1.142a44.84,44.84,0,0,0,5.534,2.7,44.115,44.115,0,0,0,14.021,3.072c.906.059,2.225.1,3.308.1h.552l-.039-2.757C113.571,405.53,112.035,405.491,111.031,405.432Zm0,0" transform="translate(-67.7 -317.734)"/><path class="a" d="M41.5,20.98h6.341V18.224H44.848A47.2,47.2,0,0,1,58.121,7.767,41.6,41.6,0,0,1,79.979,2.824a40.877,40.877,0,0,1,28.868,14.021,44.849,44.849,0,0,1,11.185,27.116c.059,1.241.039,2.5-.02,3.7l2.757.158a38.5,38.5,0,0,0,.02-4,47.557,47.557,0,0,0-11.875-28.81,44.516,44.516,0,0,0-13.233-10.3A43.873,43.873,0,0,0,80.156.067,44.647,44.647,0,0,0,56.841,5.325,50.673,50.673,0,0,0,42.879,16.293V13.2H40.122v6.4A1.371,1.371,0,0,0,41.5,20.98Zm0,0" transform="translate(-31.882 0)"/><path class="a" d="M307.025,335.242a5.244,5.244,0,0,0-5.041,3.84H288.121v2.757h13.864a5.229,5.229,0,0,0,10.082,0h3.9v-2.757h-3.9A5.245,5.245,0,0,0,307.025,335.242Zm0,7.7a2.462,2.462,0,1,1,2.462-2.461A2.462,2.462,0,0,1,307.025,342.942Zm0,0" transform="translate(-231.045 -269.226)"/><path class="a" d="M297.061,386.145a5.245,5.245,0,0,0-5.041,3.84h-3.9v2.757h3.9a5.229,5.229,0,0,0,10.082,0h13.864v-2.757H302.1A5.245,5.245,0,0,0,297.061,386.145Zm0,7.68a2.462,2.462,0,1,1,2.462-2.461A2.461,2.461,0,0,1,297.061,393.825Zm0,0" transform="translate(-231.045 -310.105)"/><path class="a" d="M297.061,286.242a5.245,5.245,0,0,0-5.041,3.84h-3.9v2.757h3.9a5.229,5.229,0,0,0,10.082,0h13.864v-2.757H302.1A5.245,5.245,0,0,0,297.061,286.242Zm0,7.7a2.462,2.462,0,1,1,2.462-2.462A2.461,2.461,0,0,1,297.061,293.942Zm0,0" transform="translate(-231.045 -229.875)"/></g></svg>