<svg xmlns="http://www.w3.org/2000/svg" xmlns:xlink="http://www.w3.org/1999/xlink" width="86.631" height="77.714" viewBox="0 0 86.631 77.714"><defs><style>.a{fill:url(#a);}</style><linearGradient id="a" x1="0.5" x2="0.5" y2="1" gradientUnits="objectBoundingBox"><stop offset="0" stop-color="#6055e0"/><stop offset="1" stop-color="#0ed7ce"/></linearGradient></defs><g transform="translate(-1 2.618)"><path class="a" d="M41.258,49.382,22.764,58.629l18.494,9.247V64.218H67.807V61.424H38.464v1.931l-9.451-4.726L38.464,53.9v1.931H78.985V53.04H41.258Z" transform="translate(8.646 -52)"/><path class="a" d="M57,58h2.795v2.795H57Z" transform="translate(22.247 -48.576)"/><path class="a" d="M61,58h2.795v2.795H61Z" transform="translate(23.837 -48.576)"/><path class="a" d="M57,40h2.795v2.795H57Z" transform="translate(22.247 16.931)"/><path class="a" d="M53,40h2.795v2.795H53Z" transform="translate(20.658 16.931)"/><path class="a" d="M49,40h2.795v2.795H49Z" transform="translate(19.069 16.931)"/><path class="a" d="M49,36H62.973v2.795H49Z" transform="translate(19.069 15.342)"/><path class="a" d="M83.439,22.781H50.158a27.946,27.946,0,1,0,0,36.329H83.439a4.2,4.2,0,0,0,4.192-4.192V26.973A4.2,4.2,0,0,0,83.439,22.781ZM70.864,25.575v5.589H62.48V25.575ZM47.269,23.739a4.185,4.185,0,0,0-1.3,1.836H38.358a27.22,27.22,0,0,0-3.848-9.162A25.043,25.043,0,0,1,47.269,23.739ZM45.713,53.521H38.975a67.266,67.266,0,0,0,1.133-11.178h5.6ZM28.946,66.1c-2.361,0-4.878-3.685-6.531-9.781H35.478C33.823,62.412,31.307,66.1,28.946,66.1Zm-7.2-12.575a62.536,62.536,0,0,1-1.158-11.178H37.3a62.664,62.664,0,0,1-1.158,11.178ZM3.866,42.343H17.783a67.266,67.266,0,0,0,1.133,11.178H7.2A24.929,24.929,0,0,1,3.866,42.343Zm25.08-26.548c2.361,0,4.878,3.685,6.531,9.781H22.413C24.068,19.479,26.584,15.795,28.946,15.795Zm7.2,12.575A62.535,62.535,0,0,1,37.3,39.548H20.588A62.664,62.664,0,0,1,21.747,28.37ZM17.783,39.548H3.866A24.946,24.946,0,0,1,7.2,28.37H18.916A67.266,67.266,0,0,0,17.783,39.548Zm27.93,0h-5.6A67.266,67.266,0,0,0,38.975,28.37h6.738ZM23.362,16.44a27.288,27.288,0,0,0-3.829,9.135H9.082A25.17,25.17,0,0,1,23.362,16.44ZM9.082,56.316H19.533a27.238,27.238,0,0,0,3.829,9.134A25.161,25.161,0,0,1,9.082,56.316Zm25.428,9.162a27.22,27.22,0,0,0,3.848-9.162H45.97a4.174,4.174,0,0,0,1.3,1.836A25.043,25.043,0,0,1,34.509,65.478ZM84.837,54.918a1.4,1.4,0,0,1-1.4,1.4H49.9a1.4,1.4,0,0,1-1.4-1.4V26.973a1.4,1.4,0,0,1,1.4-1.4h9.781v8.384H73.658V25.575h9.781a1.4,1.4,0,0,1,1.4,1.4Z" transform="translate(0 6.205)"/><path class="a" d="M17,36h2.795v2.795H17Z" transform="translate(6.356 15.342)"/><path class="a" d="M21,36h2.795v2.795H21Z" transform="translate(7.946 15.342)"/><path class="a" d="M23,28h2.795v2.795H23Z" transform="translate(8.74 12.164)"/><path class="a" d="M19,28h2.795v2.795H19Z" transform="translate(7.151 12.164)"/></g></svg>