<svg xmlns="http://www.w3.org/2000/svg" xmlns:xlink="http://www.w3.org/1999/xlink" width="119.837" height="70.534" viewBox="0 0 119.837 70.534"><defs><style>.a{fill:url(#a);}</style><linearGradient id="a" x1="0.5" x2="0.5" y2="1" gradientUnits="objectBoundingBox"><stop offset="0" stop-color="#6055e0"/><stop offset="1" stop-color="#0ed7ce"/></linearGradient></defs><g transform="translate(0 -7.627)"><g transform="translate(0 7.627)"><g transform="translate(0 0)"><path class="a" d="M287.974,61.642h0v-.014Z" transform="translate(-234.678 -51.633)"/><path class="a" d="M63.349,7.627H18.932A10.024,10.024,0,0,0,8.923,17.636V58.2a10.009,10.009,0,0,0,1.125,19.958H46.233A10.023,10.023,0,0,0,56.242,68.153V27.644h7.107a10.009,10.009,0,1,0,0-20.017ZM39.141,75.2H10.048a7.055,7.055,0,1,1,0-14.11H39.141A9.994,9.994,0,0,0,39.141,75.2ZM53.3,17.635V68.153a7.048,7.048,0,1,1-7.048-7.048,1.481,1.481,0,1,0,0-2.961h-34.3V17.636a7.062,7.062,0,0,1,6.988-7.048H56.2A9.978,9.978,0,0,0,53.3,17.635Zm8.572,7.048H56.257V22.255h5.611Zm2.961-.148V20.774a1.481,1.481,0,0,0-1.481-1.481H56.257V17.636a7.048,7.048,0,1,1,8.572,6.9Z" transform="translate(0 -7.627)"/></g></g><g transform="translate(20.057 22.314)"><g transform="translate(0 0)"><path class="a" d="M131.515,86.987H109.855a1.481,1.481,0,1,0,0,2.961h21.661a1.481,1.481,0,1,0,0-2.961Z" transform="translate(-108.374 -86.987)"/></g></g><g transform="translate(20.057 32.885)"><path class="a" d="M131.515,144.107H109.855a1.481,1.481,0,1,0,0,2.961h21.661a1.481,1.481,0,1,0,0-2.961Z" transform="translate(-108.374 -144.107)"/></g><g transform="translate(20.057 43.457)"><path class="a" d="M131.515,201.227H109.855a1.481,1.481,0,1,0,0,2.961h21.661a1.481,1.481,0,1,0,0-2.961Z" transform="translate(-108.374 -201.227)"/></g><g transform="translate(63.922 27.803)"><g transform="translate(6.965)"><path class="a" d="M98.11,59.883a5.683,5.683,0,0,0-.631-.583L75.347,40.279l2.276-2.43a6.637,6.637,0,0,0,.792.066,4.057,4.057,0,0,0,3.067-1.187c1.1-1.2,1.319-3.056.539-5.233a15.118,15.118,0,0,0-3.892-5.7c-4.057-3.815-8.939-4.992-11.093-2.694a4.4,4.4,0,0,0-.88,3.925L55.557,38.3a4.4,4.4,0,0,0-3.87,1.1c-2.2,2.3-.671,7.091,3.4,10.907,2.661,2.5,5.673,3.859,8.037,3.859a4.057,4.057,0,0,0,3.056-1.176,4.4,4.4,0,0,0,.88-3.925l2.276-2.4,20.45,20.956a5.684,5.684,0,0,0,8.327-7.739ZM68.6,24.612c1.1-1.187,4.761-.242,7.993,2.793a12.9,12.9,0,0,1,3.364,4.816c.484,1.341.451,2.43-.066,2.98a2.848,2.848,0,0,1-2.716.319L68.465,27.35A2.847,2.847,0,0,1,68.6,24.612ZM64.573,51.527c-1.1,1.187-4.761.242-7.993-2.793s-4.4-6.6-3.3-7.8A2.848,2.848,0,0,1,56,40.62l8.719,8.169A2.837,2.837,0,0,1,64.573,51.527Zm3.221-6.421L66.035,47,57.712,39.18l9.422-10.038,8.323,7.839-4.717,5.035ZM96.215,65.853a3.485,3.485,0,0,1-4.893.187L70.851,45.073l3-3.2L96.061,60.927A3.485,3.485,0,0,1,96.215,65.853Z" transform="translate(-50.681 -21.934)"/></g><g transform="translate(0 39.232)"><g transform="translate(0 0)"><path class="a" d="M21.409,309.853l-.025,0h-.055v-.374a2.2,2.2,0,0,0-2.309-2.078H4.629a2.2,2.2,0,0,0-2.287,2.078v.374H2.287A2.111,2.111,0,0,0,0,311.776c0,.008,0,.016,0,.025v4.288a2.111,2.111,0,0,0,2.252,1.96l.035,0h19.1a2.111,2.111,0,0,0,2.284-1.922c0-.012,0-.023,0-.035V311.8A2.111,2.111,0,0,0,21.409,309.853Zm.063,5.994H2.2v-3.793H3.441a1.1,1.1,0,0,0,1.1-1.1V309.6H19.13v1.341a1.1,1.1,0,0,0,1.1,1.1h1.242v3.8Z" transform="translate(0 -307.4)"/></g></g></g></g></svg>