<svg xmlns="http://www.w3.org/2000/svg" xmlns:xlink="http://www.w3.org/1999/xlink" width="55.707" height="84.621" viewBox="0 0 55.707 84.621"><defs><style>.a{fill-rule:evenodd;fill:url(#a);}</style><linearGradient id="a" x1="0.5" x2="0.5" y2="1" gradientUnits="objectBoundingBox"><stop offset="0" stop-color="#6055e0"/><stop offset="1" stop-color="#0ed7ce"/></linearGradient></defs><g transform="translate(0 0)"><path class="a" d="M55.7,16.552c0-.018,0-.036,0-.054a1.652,1.652,0,0,0-.026-.212h0a1.736,1.736,0,0,0-.057-.206c-.006-.017-.012-.034-.018-.05a1.786,1.786,0,0,0-.082-.187l-.005-.01a1.622,1.622,0,0,0-.114-.182l-.032-.044a1.668,1.668,0,0,0-.143-.167L40.267.484A1.668,1.668,0,0,0,40.1.341L40.056.308a1.567,1.567,0,0,0-.181-.114L39.862.188a1.731,1.731,0,0,0-.184-.081L39.626.088a1.692,1.692,0,0,0-.205-.057h0A1.752,1.752,0,0,0,39.209,0l-.054,0L39.1,0H1.653A1.653,1.653,0,0,0,0,1.652V72.394a1.653,1.653,0,0,0,1.653,1.653H26.536v8.921a1.653,1.653,0,0,0,2.531,1.4l6.295-3.949,6.295,3.949a1.653,1.653,0,0,0,2.531-1.4V74.047h9.866a1.653,1.653,0,0,0,1.653-1.653V16.608c0-.019,0-.037,0-.056ZM40.751,5.643l9.313,9.313H40.751ZM25.721,51.048a5.077,5.077,0,0,1-.31-1.043,4.905,4.905,0,0,1,.852-.617A6,6,0,0,0,28,47.935a5.959,5.959,0,0,0,.863-2.116,5.344,5.344,0,0,1,.307-.958,2.067,2.067,0,0,1,.409-.03c.184,0,.39.01.608.021.25.012.509.025.779.025a4.686,4.686,0,0,0,1.511-.212,6.233,6.233,0,0,0,1.907-1.176,4.235,4.235,0,0,1,.967-.664,3.949,3.949,0,0,1,.983.664,6.236,6.236,0,0,0,1.908,1.176,4.684,4.684,0,0,0,1.511.212c.269,0,.528-.013.778-.025.218-.011.424-.021.609-.021a2.02,2.02,0,0,1,.409.03,5.3,5.3,0,0,1,.306.958,5.961,5.961,0,0,0,.864,2.116,5.993,5.993,0,0,0,1.741,1.454,4.957,4.957,0,0,1,.851.617A5.111,5.111,0,0,1,45,51.048a6.544,6.544,0,0,0-.524,2.27A6.566,6.566,0,0,0,45,55.589a5.077,5.077,0,0,1,.31,1.043,4.957,4.957,0,0,1-.851.617,4.718,4.718,0,0,0-2.6,3.57,5.364,5.364,0,0,1-.306.958,2.072,2.072,0,0,1-.409.03c-.185,0-.391-.01-.609-.021-.25-.012-.509-.025-.778-.025a4.684,4.684,0,0,0-1.511.212,6.249,6.249,0,0,0-1.908,1.176,4.118,4.118,0,0,1-.975.663,4.116,4.116,0,0,1-.974-.663,6.257,6.257,0,0,0-1.908-1.176,4.686,4.686,0,0,0-1.511-.212c-.269,0-.528.013-.779.025-.218.011-.424.021-.608.021a2.072,2.072,0,0,1-.409-.03,5.344,5.344,0,0,1-.307-.958A5.948,5.948,0,0,0,28,58.7a5.982,5.982,0,0,0-1.741-1.454,4.922,4.922,0,0,1-.851-.617,5.123,5.123,0,0,1,.309-1.043,6.544,6.544,0,0,0,.524-2.27,6.559,6.559,0,0,0-.524-2.271ZM40.883,79.98l-4.642-2.912a1.656,1.656,0,0,0-1.757,0L29.841,79.98V65.106c.176-.005.348-.012.515-.02.219-.012.425-.022.612-.022a1.621,1.621,0,0,1,.467.043,4.449,4.449,0,0,1,.879.615,4.867,4.867,0,0,0,3.047,1.394,4.867,4.867,0,0,0,3.047-1.394,4.431,4.431,0,0,1,.879-.615,1.631,1.631,0,0,1,.467-.043c.187,0,.393.01.612.021.167.008.34.015.515.02V79.98Zm3.305-9.239V63.775a6.015,6.015,0,0,0,.87-2.129,4.253,4.253,0,0,1,.329-.989,4.29,4.29,0,0,1,.84-.614,4.662,4.662,0,0,0,2.228-2.364,4.775,4.775,0,0,0-.349-3.228,4.465,4.465,0,0,1-.322-1.132,4.462,4.462,0,0,1,.322-1.132,4.777,4.777,0,0,0,.349-3.229,4.664,4.664,0,0,0-2.228-2.363,4.344,4.344,0,0,1-.84-.613,4.271,4.271,0,0,1-.329-.99,4.612,4.612,0,0,0-1.546-2.808,3.927,3.927,0,0,0-2.371-.659c-.267,0-.526.013-.775.026-.219.011-.425.021-.611.021a1.623,1.623,0,0,1-.467-.043,4.411,4.411,0,0,1-.879-.615,4.873,4.873,0,0,0-3.048-1.393,4.871,4.871,0,0,0-3.047,1.393,4.439,4.439,0,0,1-.879.615,1.627,1.627,0,0,1-.467.043c-.186,0-.393-.01-.612-.022-.249-.012-.507-.025-.775-.025a3.923,3.923,0,0,0-2.369.659,4.611,4.611,0,0,0-1.547,2.808,4.288,4.288,0,0,1-.329.989,4.344,4.344,0,0,1-.841.614,4.666,4.666,0,0,0-2.228,2.363,4.776,4.776,0,0,0,.349,3.229,4.462,4.462,0,0,1,.322,1.132,4.465,4.465,0,0,1-.322,1.132,4.776,4.776,0,0,0-.349,3.229A4.669,4.669,0,0,0,24.5,60.042a4.324,4.324,0,0,1,.841.614,4.288,4.288,0,0,1,.329.989,6.012,6.012,0,0,0,.871,2.129v6.967H3.306V3.305h34.14v13.3A1.653,1.653,0,0,0,39.1,18.261H52.4v52.48Zm0,0"/><path class="a" d="M50.516,93.8H71.809a1.653,1.653,0,0,0,0-3.305H50.516a1.653,1.653,0,0,0,0,3.305Zm0,0" transform="translate(-40.787 -75.536)"/><path class="a" d="M86.951,140.969H50.517a1.653,1.653,0,0,0,0,3.306H86.951a1.653,1.653,0,1,0,0-3.306Zm0,0" transform="translate(-40.788 -117.671)"/><path class="a" d="M80.34,191.445H50.517a1.653,1.653,0,1,0,0,3.305H80.34a1.653,1.653,0,1,0,0-3.305Zm0,0" transform="translate(-40.788 -159.804)"/><path class="a" d="M270.962,191.445a1.653,1.653,0,1,0,1.653,1.653A1.656,1.656,0,0,0,270.962,191.445Zm0,0" transform="translate(-224.799 -159.804)"/></g></svg>