<svg xmlns="http://www.w3.org/2000/svg" xmlns:xlink="http://www.w3.org/1999/xlink" width="78.321" height="76.891" viewBox="0 0 78.321 76.891"><defs><style>.a{fill:url(#a);}</style><linearGradient id="a" x1="0.5" x2="0.5" y2="1" gradientUnits="objectBoundingBox"><stop offset="0" stop-color="#6055e0"/><stop offset="1" stop-color="#0ed7ce"/></linearGradient></defs><g transform="translate(0 -1.35)"><path class="a" d="M48.889,62.265a21.776,21.776,0,0,0,3.211.729A11.539,11.539,0,0,1,41.268,70.68H11.555A11.568,11.568,0,0,1,0,59.125V22.81A11.568,11.568,0,0,1,11.555,11.254h8.894a11.54,11.54,0,0,1,11.387-9.9H47.868A11.568,11.568,0,0,1,59.422,12.905v7.871a20.9,20.9,0,0,0-3.3-.412V12.905a8.263,8.263,0,0,0-8.253-8.253H31.836a8.264,8.264,0,0,0-8.086,6.6H41.271a11.573,11.573,0,0,1,11.316,9.224,21.7,21.7,0,0,0-3.233.671,8.262,8.262,0,0,0-8.079-6.594H11.562A8.265,8.265,0,0,0,3.308,22.81V59.126a8.268,8.268,0,0,0,8.253,8.254H41.275A8.268,8.268,0,0,0,48.889,62.265Zm16.262-3.217a19.944,19.944,0,1,1,7.3-27.242A19.969,19.969,0,0,1,65.152,59.048ZM63.5,56.191A16.646,16.646,0,1,0,40.762,50.1,16.659,16.659,0,0,0,63.5,56.191Zm6.661,1.631-8.583,4.953,6.6,11.432,8.583-4.953Zm7.493,12.986-8.58,4.952a4.953,4.953,0,0,0,8.58-4.952ZM31.875,23.215H9.9v2.476H31.874V23.215ZM26.821,34.223H9.9V36.7h16.92ZM9.9,47.7h16.92V45.226H9.9Zm0,11H31.874V56.23H9.9Zm42.058-13.5-5.126-5.68-2.45,2.217,7.251,8.021L65.8,37.971l-2.115-2.536Z"/></g></svg>