<svg xmlns="http://www.w3.org/2000/svg" xmlns:xlink="http://www.w3.org/1999/xlink" width="78.862" height="74.936" viewBox="0 0 78.862 74.936"><defs><style>.a{fill:url(#a);}</style><linearGradient id="a" x1="0.5" x2="0.5" y2="1" gradientUnits="objectBoundingBox"><stop offset="0" stop-color="#6055e0"/><stop offset="1" stop-color="#0ed7ce"/></linearGradient></defs><g transform="translate(1.141 -2)"><g transform="translate(2.782 2)"><path class="a" d="M68.7,2H16.245A6.252,6.252,0,0,0,10,8.245V30.31a1.249,1.249,0,0,0,2.5,0V8.245A3.747,3.747,0,0,1,16.245,4.5H63.737a6.18,6.18,0,0,0-1.281,3.747V22.474a1.249,1.249,0,0,0,2.5,0V14.489H73.7a1.249,1.249,0,0,0,1.249-1.249v-5A6.252,6.252,0,0,0,68.7,2Zm3.747,9.992H64.953V8.245a3.747,3.747,0,1,1,7.494,0Z" transform="translate(-0.008 -2)"/><path class="a" d="M65.7,42.392a1.249,1.249,0,0,0-1.249,1.249v17a3.747,3.747,0,0,1-7.494,0v-2.5A1.249,1.249,0,0,0,55.7,56.89H3.249A1.249,1.249,0,0,0,2,58.139v2.5a6.252,6.252,0,0,0,6.245,6.245H60.7a6.252,6.252,0,0,0,6.245-6.245v-17A1.249,1.249,0,0,0,65.7,42.392ZM8.245,64.383A3.747,3.747,0,0,1,4.5,60.637V59.388H54.455v1.249A6.22,6.22,0,0,0,55.7,64.383Z" transform="translate(-2 8.055)"/><path class="a" d="M65.353,17.5a3.747,3.747,0,0,0-5.121,1.374l-1.873,3.247a1.249,1.249,0,0,0-1.706.457L54.78,25.826,53.7,25.2a3.747,3.747,0,0,0-5.121,1.374l-5,8.654a1.249,1.249,0,0,0,2.164,1.249l5-8.654a1.249,1.249,0,0,1,1.706-.456l1.082.624L41.665,48.543c-.009.015-.009.034-.016.049a1.249,1.249,0,0,0-.125.356c0,.03-.014.059-.016.09s-.01.036-.011.055l-.247,4.321a3.24,3.24,0,0,0,.686,2.163L41.171,56.9a1.249,1.249,0,1,0,2.164,1.249l.762-1.319a3.372,3.372,0,0,0,.417.055,3.266,3.266,0,0,0,1.8-.545l3.622-2.389a.9.9,0,0,0,.1-.084,1.073,1.073,0,0,0,.114-.1,1.192,1.192,0,0,0,.116-.149c.021-.031.049-.055.067-.087l6.563-11.365a1.249,1.249,0,0,0-2.164-1.249L48.792,51.2l-2.163-1.249L44.466,48.7l11.24-19.468,4.325,2.5-2.8,4.856a1.249,1.249,0,0,0,2.164,1.249l2.794-4.852,1.082.624a1.249,1.249,0,1,0,1.249-2.163l-1.082-.624,1.873-3.247a1.249,1.249,0,0,0-.455-1.709l1.873-3.247A3.747,3.747,0,0,0,65.353,17.5ZM44.932,54.254a.773.773,0,0,1-1.2-.692l.14-2.311,2.994,1.726ZM62.4,20.123a1.249,1.249,0,0,1,1.706-.456h0a1.249,1.249,0,0,1,.457,1.7l-1.873,3.247-1.082-.624-1.083-.624Zm-5.452,6.948,1.249-2.163,4.325,2.5-1.249,2.163Z" transform="translate(7.71 1.734)"/><path class="a" d="M46.979,14.245v-5A1.249,1.249,0,0,0,45.73,8H23.249A1.249,1.249,0,0,0,22,9.249v5a1.249,1.249,0,0,0,1.249,1.249H45.73A1.249,1.249,0,0,0,46.979,14.245ZM44.481,13H24.5V10.5H44.481Z" transform="translate(2.979 -0.506)"/><path class="a" d="M27.249,17a1.249,1.249,0,1,0,0,2.5H39.738a1.249,1.249,0,1,0,0-2.5Z" transform="translate(3.975 1.734)"/><path class="a" d="M23.249,24.5H45.73a1.249,1.249,0,1,0,0-2.5H23.249a1.249,1.249,0,0,0,0,2.5Z" transform="translate(2.979 2.979)"/><path class="a" d="M23.249,29.5h23.73a1.249,1.249,0,0,0,0-2.5H23.249a1.249,1.249,0,1,0,0,2.5Z" transform="translate(2.979 4.223)"/><path class="a" d="M42.489,32H31.249a1.249,1.249,0,0,0,0,2.5h11.24a1.249,1.249,0,0,0,0-2.5Z" transform="translate(4.97 5.468)"/><path class="a" d="M44.734,39.249A1.249,1.249,0,0,0,43.485,38H27.249a1.249,1.249,0,1,0,0,2.5H43.485A1.249,1.249,0,0,0,44.734,39.249Z" transform="translate(3.975 6.962)"/><path class="a" d="M29.249,43a1.249,1.249,0,1,0,0,2.5h8.743a1.249,1.249,0,1,0,0-2.5Z" transform="translate(4.472 8.206)"/></g><g transform="translate(-1.141 34.296)"><g transform="translate(21.834 27.189)"><path class="a" d="M369.757,459.331a.592.592,0,0,0-.809-.215l-.023.013a.592.592,0,1,0,.595,1.024l.023-.013A.592.592,0,0,0,369.757,459.331Z" transform="translate(-368.63 -459.036)"/></g><g transform="translate(0 0)"><path class="a" d="M28.294,7.587A15.159,15.159,0,0,0,.523,11.243,15.162,15.162,0,0,0,20.589,29.325a.592.592,0,0,0-.425-1.106A13.885,13.885,0,0,1,6.8,26.383l.531-2.77.256-.083a1.845,1.845,0,0,0,1.183-2.322l-.188-.577a.654.654,0,0,1,0-.408,1.843,1.843,0,0,0-1.4-2.383l-1.337-.261L3.271,15.618a.592.592,0,0,0-.541-.092l-1.51.491a13.963,13.963,0,0,1,0-1.617c.06.055.1.093.122.118a.621.621,0,0,0,.579.3,8.6,8.6,0,0,0,1.061-.121c.5-.074,1-.157,1-.158a.592.592,0,0,0,.391-.918l-.726-1.065,1.04-.744a.593.593,0,0,0,.169-.187L6.469,8.806l.65-.7A2.5,2.5,0,0,0,7.6,5.456,2.724,2.724,0,0,0,6.523,4.186,13.957,13.957,0,0,1,15,1.2L13.946,2.523,10.024,3.9a.592.592,0,0,0-.352.333l-1.1,2.655a.592.592,0,0,0,.065.57l1.6,2.241a5.629,5.629,0,0,0-.718.891c-.117.166-.227.322-.3.41s-.133.151-.2.225a5.543,5.543,0,0,0-.953,1.322,3.529,3.529,0,0,0,.293,3.568A3.324,3.324,0,0,0,11.5,17.46a4.612,4.612,0,0,0,.579-.117c.508-.126.669-.138.832.014.079.074.087.088.085.34a2.3,2.3,0,0,0,.053.587,1.871,1.871,0,0,0,.5.818,1.327,1.327,0,0,1,.215.274,1.475,1.475,0,0,1-.072,1.225l-.046.141a3.324,3.324,0,0,0,.435,2.376c.107.236.208.458.274.654.533,1.58.932,1.942,1.252,2.088a1.234,1.234,0,0,0,.517.11,3.312,3.312,0,0,0,2.154-1.3,1.82,1.82,0,0,0,.367-.862.944.944,0,0,1,.076-.265,1.552,1.552,0,0,1,.194-.25,2.055,2.055,0,0,0,.484-.8,1.3,1.3,0,0,1,.4-.631l.131-.14a1.9,1.9,0,0,0,.371-2.208c-.181-.584.136-.958.9-1.671a6.4,6.4,0,0,0,.94-1.013,1.279,1.279,0,0,0,.251-1.186c-.214-.5-.759-.58-1.2-.648a1.962,1.962,0,0,1-.517-.121,2.8,2.8,0,0,1-.807-1.223c-.043-.1-.086-.191-.129-.283-.077-.165-.154-.364-.235-.574a4.969,4.969,0,0,0-.875-1.631,3.783,3.783,0,0,0-1.7-.755c-.209-.057-.406-.11-.536-.158a.591.591,0,0,0-.34-.021,1.537,1.537,0,0,0-.631.261.736.736,0,0,0-.211.284,6.774,6.774,0,0,1-.7-.425l-.011-.008a.84.84,0,0,0-.053-.57c-.331-.7-1.429-.645-1.646-.627-.123.01-.279.016-.444.022-.259.009-.545.019-.828.051l.015-.041a1.514,1.514,0,0,1,1.422-1h.337a.592.592,0,0,0,0-1.184h-.337a2.7,2.7,0,0,0-2.293,1.279L9.8,7.035l.869-2.107L14.5,3.584a.593.593,0,0,0,.267-.19l1.7-2.137a13.967,13.967,0,0,1,10.8,6.922,13.822,13.822,0,0,1,1.4,3.39l-.251.224a1.582,1.582,0,0,0-.527,1.151s0,.01,0,.014l-.409-1.125a1.479,1.479,0,0,0-.267-.457l-.73-.854A1.484,1.484,0,0,0,25.35,10h-.893a.858.858,0,0,0-.714,1.334l.09.136a6.564,6.564,0,0,1-1.955,1.161l-1.224-2.345V9.763a.592.592,0,0,0-.183-.428l-1.1-1.052a.593.593,0,0,0-.213-.13L18.163,7.8a.592.592,0,0,0-.393,1.117l.872.307.827.789v.415a.592.592,0,0,0,.067.274l1.533,2.936a.592.592,0,0,0,.73.282l.446-.165a7.751,7.751,0,0,0,2.779-1.779.592.592,0,0,0,.074-.747l-.032-.047h.283a.3.3,0,0,1,.23.106l.73.854a.3.3,0,0,1,.054.093l.805,2.214a.592.592,0,0,0,.975.216l.383-.383a1.849,1.849,0,0,0,.49-.89A14.025,14.025,0,0,1,23.81,26.15a.592.592,0,0,0,.731.932A15.162,15.162,0,0,0,28.294,7.587ZM2.8,16.748l2.442,1.857a.592.592,0,0,0,.245.11L6.96,19a.658.658,0,0,1,.5.851,1.831,1.831,0,0,0,0,1.144l.188.577a.659.659,0,0,1-.423.829l-.589.191a.592.592,0,0,0-.4.452l-.474,2.473a14.131,14.131,0,0,1-2.7-3.365,13.9,13.9,0,0,1-1.721-4.932ZM6.253,7.3l-.7.746a.6.6,0,0,0-.081.11L3.893,10.92,2.487,11.925a.592.592,0,0,0-.145.815l.526.771c-.3.045-.575.082-.756.1L2,13.512c-.141-.131-.336-.305-.628-.561A14,14,0,0,1,5.547,5.029a1.54,1.54,0,0,1,.96.879A1.314,1.314,0,0,1,6.253,7.3Zm4.829,3.237a3.8,3.8,0,0,1,1.325-.186c.179-.006.349-.012.5-.025a1.611,1.611,0,0,1,.252,0,.592.592,0,0,0,.272.737c.111.059.266.163.429.272a3.413,3.413,0,0,0,1.481.69.983.983,0,0,0,.8-.335l.025-.025a.635.635,0,0,0,.159-.194l.3.082a3.944,3.944,0,0,1,1.148.425,4.2,4.2,0,0,1,.632,1.244c.089.23.173.448.267.65.041.087.08.176.121.266a3.7,3.7,0,0,0,1.24,1.73,2.448,2.448,0,0,0,.986.3l.129.02a5.727,5.727,0,0,1-.752.789c-.733.683-1.646,1.533-1.225,2.888.2.64.208.709-.111,1.056l-.122.131a2.434,2.434,0,0,0-.668,1.083.924.924,0,0,1-.241.377,2.645,2.645,0,0,0-.331.439,1.919,1.919,0,0,0-.214.629.725.725,0,0,1-.124.347,3.453,3.453,0,0,1-.748.661.977.977,0,0,1-.5.2,4.225,4.225,0,0,1-.638-1.391c-.085-.253-.2-.514-.318-.766a2.539,2.539,0,0,1-.386-1.523l.044-.136a2.587,2.587,0,0,0,.04-2.05,2.136,2.136,0,0,0-.431-.614,1.1,1.1,0,0,1-.226-.3,1.28,1.28,0,0,1-.019-.3,1.469,1.469,0,0,0-.46-1.212,1.908,1.908,0,0,0-1.926-.3,3.716,3.716,0,0,1-.432.09,2.128,2.128,0,0,1-2.039-.862,2.345,2.345,0,0,1-.184-2.371,4.5,4.5,0,0,1,.767-1.041c.069-.077.138-.155.208-.235.115-.133.243-.313.377-.5A4.282,4.282,0,0,1,11.082,10.538Z" transform="translate(0 -0.001)"/></g><g transform="translate(20.739 18.877)"><path class="a" d="M353.7,320.226l-.285-1.074a.592.592,0,0,0-1.093-.131c-.065.12-.123.246-.18.369a2.549,2.549,0,0,1-.3.537,1.3,1.3,0,0,1-.348.206,1.629,1.629,0,0,0-.986.959,1.737,1.737,0,0,0-.039.836.538.538,0,0,1-.015.349l-.006.014a1.993,1.993,0,0,0-.047,1.966,1.233,1.233,0,0,0,1.007.628.96.96,0,0,0,.158-.013c.6-.1,1.058-.727,1.43-1.978l.7-2.348A.592.592,0,0,0,353.7,320.226Zm-1.837,2.331a3.589,3.589,0,0,1-.453,1.067l-.036-.049c-.113-.161.056-.558.168-.821l.006-.014a1.666,1.666,0,0,0,.1-.987.622.622,0,0,1,0-.307c.023-.074.162-.146.371-.246.093-.045.195-.094.3-.154Z" transform="translate(-350.15 -318.712)"/></g><g transform="translate(15.166 6.993)"><path class="a" d="M256.872,118.107l-.04-.014a.592.592,0,0,0-.392,1.118l.04.014a.592.592,0,0,0,.392-1.118Z" transform="translate(-256.044 -118.059)"/></g></g></g></svg>