<svg xmlns="http://www.w3.org/2000/svg" xmlns:xlink="http://www.w3.org/1999/xlink" width="100.594" height="67.063" viewBox="0 0 100.594 67.063"><defs><style>.a{fill:url(#a);}</style><linearGradient id="a" x1="-0.121" y1="1.643" x2="0.717" y2="-0.383" gradientUnits="objectBoundingBox"><stop offset="0" stop-color="#6055e0"/><stop offset="0" stop-color="#0ed7ce"/><stop offset="1" stop-color="#5467dd"/><stop offset="1" stop-color="#0ed7ce"/></linearGradient></defs><path class="a" d="M98.917,133.65H92.211v-6.706a1.677,1.677,0,0,0-1.677-1.677H78.8v-5.03h8.383a1.677,1.677,0,0,0,1.677-1.677V108.5a1.677,1.677,0,0,0-1.677-1.677H78.8v-6.706a1.677,1.677,0,0,0-1.677-1.677H51.973v-5.03h8.383a1.677,1.677,0,0,0,1.677-1.677V81.677A1.677,1.677,0,0,0,60.356,80H40.237a1.677,1.677,0,0,0-1.677,1.677V91.736a1.677,1.677,0,0,0,1.677,1.677H48.62v5.03H23.472a1.677,1.677,0,0,0-1.677,1.677v6.706H13.412a1.677,1.677,0,0,0-1.677,1.677v10.059a1.677,1.677,0,0,0,1.677,1.677H21.8v5.03H10.059a1.677,1.677,0,0,0-1.677,1.677v6.706H1.677A1.677,1.677,0,0,0,0,135.327v10.059a1.677,1.677,0,0,0,1.677,1.677H18.442a1.677,1.677,0,0,0,1.677-1.677V135.327a1.677,1.677,0,0,0-1.677-1.677H11.736v-5.03H35.208v5.03H28.5a1.677,1.677,0,0,0-1.677,1.677v10.059a1.677,1.677,0,0,0,1.677,1.677H45.267a1.677,1.677,0,0,0,1.677-1.677V135.327a1.677,1.677,0,0,0-1.677-1.677H38.561v-6.706a1.677,1.677,0,0,0-1.677-1.677H25.148v-5.03h8.383a1.677,1.677,0,0,0,1.677-1.677V108.5a1.677,1.677,0,0,0-1.677-1.677H25.148V101.8h50.3v5.03H67.062a1.677,1.677,0,0,0-1.677,1.677v10.059a1.677,1.677,0,0,0,1.677,1.677h8.383v5.03H63.709a1.677,1.677,0,0,0-1.677,1.677v6.706H55.327a1.677,1.677,0,0,0-1.677,1.677v10.059a1.677,1.677,0,0,0,1.677,1.677H72.092a1.677,1.677,0,0,0,1.677-1.677V135.327a1.677,1.677,0,0,0-1.677-1.677H65.386v-5.03H88.858v5.03H82.152a1.677,1.677,0,0,0-1.677,1.677v10.059a1.677,1.677,0,0,0,1.677,1.677H98.917a1.677,1.677,0,0,0,1.677-1.677V135.327A1.677,1.677,0,0,0,98.917,133.65Zm-57-50.3H58.68v6.706H41.914ZM16.766,143.709H3.353V137H16.766Zm26.825,0H30.178V137H43.591ZM31.855,116.884H15.089v-6.706H31.855Zm36.884-6.706H85.5v6.706H68.739Zm1.677,33.531H57V137H70.416Zm26.825,0H83.828V137H97.241Z" transform="translate(0 -80)"/></svg>