<svg xmlns="http://www.w3.org/2000/svg" xmlns:xlink="http://www.w3.org/1999/xlink" width="91.458" height="91.458" viewBox="0 0 91.458 91.458"><defs><style>.a{fill:url(#a);}</style><linearGradient id="a" x1="0.5" x2="0.5" y2="1" gradientUnits="objectBoundingBox"><stop offset="0" stop-color="#6055e0"/><stop offset="1" stop-color="#0ed7ce"/></linearGradient></defs><g transform="translate(-1 -0.856)"><path class="a" d="M22.66,13.83a8.83,8.83,0,1,0-8.83,8.83A8.839,8.839,0,0,0,22.66,13.83Zm-14.717,0a5.887,5.887,0,1,1,5.887,5.887A5.893,5.893,0,0,1,7.943,13.83Z" transform="translate(1.887 1.955)"/><path class="a" d="M0,0H2.943V2.943H0Z" transform="translate(80.284 10.947) rotate(-45)"/><path class="a" d="M0,0H2.943V2.943H0Z" transform="translate(76.121 15.108) rotate(-45)"/><path class="a" d="M0,0H2.795V2.943H0Z" transform="translate(72.064 19.166) rotate(-45)"/><path class="a" d="M87.831,62.879H79.667a36.83,36.83,0,0,0,3.748-16.189A36.445,36.445,0,0,0,77,25.975q1.667-1.163,3.251-2.444L89.3,32.583l3.155-3.155L88.042,16.181l.471-.471A7.716,7.716,0,0,0,77.6,4.8l-.474.474L63.884.856,60.731,4.011l9.054,9.054q-1.285,1.581-2.444,3.25a36.728,36.728,0,0,0-37.066-2.589A14.709,14.709,0,0,0,1,15.785v.4a14.674,14.674,0,0,0,2.472,8.164l7.9,11.847a36.691,36.691,0,0,0,.921,23.736H11.3A4.4,4.4,0,0,0,9.83,68.5V71.71H1v4.929A15.693,15.693,0,0,0,16.675,92.314h16.29a15.754,15.754,0,0,0,14.1-8.842,36.5,36.5,0,0,0,12.8-2.45V87.9a4.421,4.421,0,0,0,4.415,4.415H87.832A4.421,4.421,0,0,0,92.247,87.9v-20.6A4.423,4.423,0,0,0,87.831,62.879ZM71.642,65.823h8.83v2.943h-8.83Zm-7.359-2.943H59.889a85.7,85.7,0,0,0,1.436-14.717h19.1a33.8,33.8,0,0,1-4.087,14.717ZM48.049,80.243l.046-2.646H41.646l-4.693-9.388a4.409,4.409,0,0,0,2.041-2.386H56.229C54.239,73.749,51.141,78.989,48.049,80.243ZM38.994,62.879a4.413,4.413,0,0,0-3.127-2.814,85.3,85.3,0,0,1-.988-11.9h23.5a82.079,82.079,0,0,1-1.492,14.717ZM12.83,45.219a33.861,33.861,0,0,1,.868-6.4,4.214,4.214,0,0,0,5.532-1.361L23.863,30.5h9.494a85.7,85.7,0,0,0-1.436,14.717ZM36.365,30.5H56.9a83.216,83.216,0,0,1,1.47,14.717H34.877A82.088,82.088,0,0,1,36.365,30.5Zm10.258-17.66c2.615,0,5.305,2.961,7.464,8.115l-1.118,1.118,1.919.96c.5,1.42.955,2.926,1.354,4.524H37.026C39.326,18.418,43.1,12.842,46.623,12.842ZM62.929,23.765l-4.992-2.5.911-.91,5.172,1.292C63.64,22.346,63.281,23.052,62.929,23.765Zm-1.236,2.673c-.012.026-.025.053-.037.079a3.836,3.836,0,0,0-.266,1.042H59.262c-.218-.923-.455-1.816-.7-2.689ZM80.415,45.219h-19.1A86.65,86.65,0,0,0,59.889,30.5H62.22A3.878,3.878,0,0,0,66.8,31.657l.081-.037,4.362,8.724,4.976-4.977-1.9-7.619c.079-.049.156-.1.235-.152a33.493,33.493,0,0,1,5.869,17.622ZM71.662,29.294l1.292,5.172-.911.91-2.5-4.992C70.261,30.033,70.968,29.673,71.662,29.294ZM88.878,28l-6.384-6.384c.74-.667,1.467-1.35,2.174-2.057l1.046-1.046ZM83.058,5.483a4.771,4.771,0,0,1,3.375,8.146l-3.846,3.846A53.913,53.913,0,0,1,65.639,28.951a.972.972,0,0,1-1.277-1.274A53.934,53.934,0,0,1,75.838,10.725L79.682,6.88h0a4.749,4.749,0,0,1,3.376-1.4ZM65.318,4.435,74.8,7.6,73.758,8.646c-.708.708-1.391,1.435-2.057,2.174ZM65.564,19,57.946,17.1,56.33,18.714a23.193,23.193,0,0,0-3.189-5.225,33.425,33.425,0,0,1,12.576,5.278c-.052.081-.1.157-.153.237Zm-35.19-2A33.725,33.725,0,0,1,40.2,13.461c-2.6,3.076-4.749,7.984-6.211,14.1H25.825l2.137-3.205A14.644,14.644,0,0,0,30.374,17.008ZM3.943,16.19v-.4a11.774,11.774,0,0,1,23.547,0v.4a11.739,11.739,0,0,1-1.978,6.531l-8.733,13.1a1.325,1.325,0,0,1-2.127,0L5.92,22.721A11.746,11.746,0,0,1,3.943,16.19Zm8.868,31.973H31.935a88.885,88.885,0,0,0,.937,11.774h-17.4a33.522,33.522,0,0,1-2.664-11.774ZM11.3,62.879H34.849a1.472,1.472,0,0,1,0,2.943H11.3a1.472,1.472,0,0,1,0-2.943Zm1.472,5.887H33.94l4.415,8.83H18.1L15.155,71.71H12.774Zm20.192,20.6H16.675A12.746,12.746,0,0,1,3.943,76.638V74.653h9.392l2.943,5.887H45.085A12.79,12.79,0,0,1,32.965,89.37Zm20.08-9.448c2.6-3.076,4.751-7.985,6.212-14.1h.882a4.365,4.365,0,0,0-.271,1.472V77.836A33.314,33.314,0,0,1,53.045,79.922ZM89.3,87.9a1.473,1.473,0,0,1-1.472,1.472H64.283A1.473,1.473,0,0,1,62.812,87.9v-20.6a1.473,1.473,0,0,1,1.472-1.472H68.7V71.71H83.415V65.823h4.415A1.473,1.473,0,0,1,89.3,67.295Z"/><path class="a" d="M57,57h2.943v2.943H57Z" transform="translate(26.415 26.483)"/><path class="a" d="M53,57h2.943v2.943H53Z" transform="translate(24.529 26.483)"/><path class="a" d="M17,49h2.943v2.943H17Z" transform="translate(7.547 22.71)"/><path class="a" d="M21,49h2.943v2.943H21Z" transform="translate(9.434 22.71)"/><path class="a" d="M13,49h2.943v2.943H13Z" transform="translate(5.66 22.71)"/><path class="a" d="M27,35h2.943v2.943H27Z" transform="translate(12.264 16.106)"/><path class="a" d="M35,35h2.943v2.943H35Z" transform="translate(16.038 16.106)"/><path class="a" d="M31,35h2.943v2.943H31Z" transform="translate(14.151 16.106)"/><path class="a" d="M35,27h2.943v2.943H35Z" transform="translate(16.038 12.332)"/><path class="a" d="M31,27h2.943v2.943H31Z" transform="translate(14.151 12.332)"/><path class="a" d="M27,27h2.943v2.943H27Z" transform="translate(12.264 12.332)"/></g></svg>