<svg xmlns="http://www.w3.org/2000/svg" xmlns:xlink="http://www.w3.org/1999/xlink" width="429.2" height="382" viewBox="0 0 429.2 382"><defs><style>.a{fill:url(#a);}</style><linearGradient id="a" x1="0.5" x2="0.5" y2="1" gradientUnits="objectBoundingBox"><stop offset="0" stop-color="#6055e0"/><stop offset="1" stop-color="#0ed7ce"/></linearGradient></defs><g transform="translate(0 -23.6)"><path class="a" d="M303.2,132.8l-.4-.4A14.771,14.771,0,0,0,292,128H230.8a13.867,13.867,0,0,0-10.4,4.4,14.525,14.525,0,0,0-4.4,10.4c0,4.4,1.6,8.4,4.4,10.8a14.771,14.771,0,0,0,10.8,4.4H292a15.455,15.455,0,0,0,10.8-4.4,14.525,14.525,0,0,0,4.4-10.4A15.992,15.992,0,0,0,303.2,132.8ZM294,145.6a3.457,3.457,0,0,1-2.4,1.2H230.8a4.288,4.288,0,0,1-2.4-.8,2.939,2.939,0,0,1-.8-2.4,4.662,4.662,0,0,1,.8-2.8,3.457,3.457,0,0,1,2.4-1.2h60.8a2.851,2.851,0,0,1,2.4,1.2,3.381,3.381,0,0,1,.8,2.4A4.289,4.289,0,0,1,294,145.6Z"/><path class="a" d="M421.6,325.6a23.952,23.952,0,0,0-16.8-7.2H385.6V116.8h7.6a5.468,5.468,0,0,0,5.6-5.6V64.4a5.468,5.468,0,0,0-5.6-5.6h-264a5.468,5.468,0,0,0-5.6,5.6v46.8a5.468,5.468,0,0,0,5.6,5.6h7.6V316.4c-2.4.8-4.4,1.6-6.8,2.4H106.8V47.6A22.007,22.007,0,0,0,100,31.2l-.4-.4a23.952,23.952,0,0,0-16.8-7.2H24A23.952,23.952,0,0,0,7.2,30.8,23.952,23.952,0,0,0,0,47.6,23.952,23.952,0,0,0,7.2,64.4,23.952,23.952,0,0,0,24,71.6H58.8V342.8a22.007,22.007,0,0,0,6.8,16.4l.4.4a23.952,23.952,0,0,0,16.8,7.2h21.6a46.029,46.029,0,0,0,12.8,25.6,44.979,44.979,0,0,0,32.4,13.2A46.668,46.668,0,0,0,182,392.4a43.606,43.606,0,0,0,12.8-25.6h92.8a46.029,46.029,0,0,0,12.8,25.6,44.979,44.979,0,0,0,32.4,13.2,46.668,46.668,0,0,0,32.4-13.2A43.606,43.606,0,0,0,378,366.8h27.2a24.607,24.607,0,0,0,24-24A26.319,26.319,0,0,0,421.6,325.6ZM134.8,105.2V70H387.6v35.2ZM374,116.8v202H351.6a.392.392,0,0,1-.4-.4c-.8-.4-2-.8-2.8-1.2-.4,0-1.2-.4-1.6-.4a25.492,25.492,0,0,0-2.8-.8c-.4,0-.8-.4-1.2-.4h-.4c-1.2-.4-2.4-.4-3.6-.8a3.024,3.024,0,0,1-1.6-.4c-1.6,0-3.2-.4-5.2-.4a22.808,22.808,0,0,0-5.2.4,3.024,3.024,0,0,0-1.6.4,11.68,11.68,0,0,0-3.6.8h-.4c-.4,0-.8.4-1.2.4a25.492,25.492,0,0,1-2.8.8c-.4,0-1.2.4-1.6.4-.8.4-2,.8-2.8,1.2a.392.392,0,0,0-.4.4H168.8a.392.392,0,0,1-.4-.4c-.8-.4-2-.8-2.8-1.2-.4,0-1.2-.4-1.6-.4a25.492,25.492,0,0,0-2.8-.8c-.4,0-.8-.4-1.2-.4h-.4c-1.2-.4-2.4-.4-3.6-.8a3.024,3.024,0,0,1-1.6-.4c-1.6,0-3.2-.4-5.2-.4,0,.4-.4.4-.8.4V116.8ZM24,60a12.409,12.409,0,0,1-8.8-3.6,11.761,11.761,0,0,1-3.6-8.8,11.761,11.761,0,0,1,3.6-8.8A11.761,11.761,0,0,1,24,35.2H82.8a12.409,12.409,0,0,1,8.8,3.6l.4.4a12.909,12.909,0,0,1,3.2,8.4,12.409,12.409,0,0,1-3.6,8.8A11.761,11.761,0,0,1,82.8,60Zm90.8,270.8c-.4.4-.8,1.2-1.6,1.6A5.521,5.521,0,0,0,112,334a8.743,8.743,0,0,0-1.2,2c0,.4-.4.4-.4.8s-.4.4-.4.8c-.4.8-1.2,2-1.6,2.8-.4.4-.4.8-.8,1.2a27.557,27.557,0,0,0-1.2,3.2c0,.4-.4.8-.4,1.6a9.414,9.414,0,0,0-.8,3.2c0,.4-.4.8-.4,1.6-.4,1.2-.4,2.4-.8,3.6V356H82.8a22.811,22.811,0,0,1-8.8-4.4,13.123,13.123,0,0,1-3.6-8.8V71.6H82.8a22.965,22.965,0,0,0,12.451-3.387.373.373,0,0,0-.051.187V324.8a5.468,5.468,0,0,0,5.6,5.6h14S114.8,330.4,114.8,330.8Zm58.8,53.6a34.546,34.546,0,0,1-24,10,33.82,33.82,0,0,1-24-10,34.546,34.546,0,0,1-10-24,16.408,16.408,0,0,1,.4-4.4v-1.2a9.414,9.414,0,0,1,.8-3.2,1.47,1.47,0,0,1,.4-1.2l1.2-3.6c0-.4.4-.8.4-1.2l1.2-2.4c.4-.4.4-.8.8-1.2.4-.8,1.2-1.6,1.6-2.4.4-.4.4-.8.8-1.2l2.4-2.4,1.2-1.2c.8-.4,1.2-1.2,2-1.6.4-.4.8-.4,1.2-.8,1.2-.8,2-1.2,3.2-2a30.007,30.007,0,0,1,12-3.6h4a11.074,11.074,0,0,1,3.6.4H154c.8,0,1.6.4,2.4.4.4,0,1.2.4,1.6.4.8,0,1.2.4,2,.4a3.033,3.033,0,0,1,1.6.8c.4.4,1.2.4,1.6.8.8.4,1.2.4,2,.8a22.329,22.329,0,0,1,3.2,2c.4.4.8.4.8.8.8.8,1.6,1.2,2.4,2,.4.4.8.4.8.8l2.8,2.8v.4c.8,1.2,1.6,2,2.4,3.2.4.4.4.8.8,1.2l1.2,2.4c0,.4.4.8.4,1.2l1.2,3.6c0,.4.4.8.4,1.2.4.8.4,2,.8,3.2v1.2c0,1.6.4,2.8.4,4.4C183.6,369.6,179.6,378,173.6,384.4Zm124-52.8c-.4-.4-.8,0-1.2.8a5.522,5.522,0,0,0-1.2,1.6c-.4.8-.8,1.2-1.2,2,0,.4-.4.4-.4.8s-.4.4-.4.8c-.4.8-1.2,2-1.6,2.8-.4.4-.4.8-.8,1.2a27.564,27.564,0,0,0-1.2,3.2c0,.4-.4.8-.4,1.6a9.414,9.414,0,0,0-.8,3.2c0,.4-.4.8-.4,1.6-.4,1.2-.4,2.4-.8,3.6V356H194.8v-1.2a11.679,11.679,0,0,0-.8-3.6c0-.4-.4-.8-.4-1.6-.4-1.2-.4-2-.8-3.2,0-.4-.4-.8-.4-1.6-.4-1.2-.8-2-1.2-3.2-.4-.4-.4-.8-.8-1.2a17.39,17.39,0,0,0-1.6-2.8c0-.4-.4-.4-.4-.8s-.4-.4-.8-.8-.8-.8-.8-1.2a7.022,7.022,0,0,0-1.6-2l-1.2-1.2a.392.392,0,0,0-.4-.4h114S297.6,331.2,297.6,331.6Zm58.8,52.8a34.546,34.546,0,0,1-24,10,33.82,33.82,0,0,1-24-10,34.546,34.546,0,0,1-10-24,16.408,16.408,0,0,1,.4-4.4v-1.2a9.414,9.414,0,0,1,.8-3.2,1.47,1.47,0,0,1,.4-1.2l1.2-3.6c0-.4.4-.8.4-1.2l1.2-2.4c.4-.4.4-.8.8-1.2.4-.8,1.2-1.6,1.6-2.4.4-.4.4-.8.8-1.2l2.4-2.4,1.2-1.2c.8-.4,1.2-1.2,2-1.6.4-.4.8-.4,1.2-.8,1.2-.8,2-1.2,3.2-2,.4-.4,1.2-.4,1.6-.8s1.2-.4,1.6-.8a2.4,2.4,0,0,1,1.6-.4c.8-.4,1.6-.4,2-.8.4,0,.8-.4,1.6-.4s1.6-.4,2.4-.4H328c1.2,0,2.4-.4,3.6-.4a11.074,11.074,0,0,1,3.6.4h1.2c.8,0,1.6.4,2.4.4.4,0,1.2.4,1.6.4.8,0,1.2.4,2,.4a3.033,3.033,0,0,1,1.6.8c.4.4,1.2.4,1.6.8.8.4,1.2.4,2,.8a22.329,22.329,0,0,1,3.2,2c.4.4.8.4.8.8.8.8,1.6,1.2,2.4,2,.4.4.8.4.8.8l2.8,2.8c.8,1.2,1.6,2,2.4,3.2.4.4.4.8.8,1.2l1.2,2.4c0,.4.4.8.4,1.2l1.2,3.6c0,.4.4.8.4,1.2.4,1.2.4,2,.8,3.2V356c0,1.6.4,2.8.4,4.4C366.4,369.6,362.8,378,356.4,384.4Zm57.2-32.8a11.761,11.761,0,0,1-8.8,3.6H377.6V354a11.68,11.68,0,0,0-.8-3.6c0-.4-.4-.8-.4-1.6-.4-1.2-.4-2-.8-3.2,0-.4-.4-.8-.4-1.6-.4-1.2-.8-2-1.2-3.2-.4-.4-.4-.8-.8-1.2-.4-.8-1.2-2-1.6-2.8,0-.4-.4-.4-.4-.8a.86.86,0,0,0-.8-.8c-.4-.4-.8-.8-.8-1.2a7.022,7.022,0,0,0-1.6-2l-1.2-1.2a.392.392,0,0,0-.4-.4h38a12.293,12.293,0,0,1,12.4,12.4A10.6,10.6,0,0,1,413.6,351.6Z"/><path class="a" d="M166,343.2c-4-4.4-10-6.8-16.8-6.8a25.391,25.391,0,0,0-16.8,6.8,23.578,23.578,0,0,0-6.8,16.8,25.391,25.391,0,0,0,6.8,16.8,23.578,23.578,0,0,0,16.8,6.8,25.391,25.391,0,0,0,16.8-6.8,23.578,23.578,0,0,0,6.8-16.8A25.391,25.391,0,0,0,166,343.2Zm-8,25.6a11.761,11.761,0,0,1-8.8,3.6,12.409,12.409,0,0,1-8.8-3.6,11.761,11.761,0,0,1-3.6-8.8,12.409,12.409,0,0,1,3.6-8.8,11.761,11.761,0,0,1,8.8-3.6,12.409,12.409,0,0,1,8.8,3.6,12.556,12.556,0,0,1,0,17.6Z"/><path class="a" d="M349.2,343.2a23.578,23.578,0,0,0-16.8-6.8,25.391,25.391,0,0,0-16.8,6.8,23.578,23.578,0,0,0-6.8,16.8,25.391,25.391,0,0,0,6.8,16.8,23.578,23.578,0,0,0,16.8,6.8,25.391,25.391,0,0,0,16.8-6.8A23.578,23.578,0,0,0,356,360,25.391,25.391,0,0,0,349.2,343.2Zm-8,25.6a11.761,11.761,0,0,1-8.8,3.6,12.409,12.409,0,0,1-8.8-3.6A11.761,11.761,0,0,1,320,360a12.409,12.409,0,0,1,3.6-8.8,11.761,11.761,0,0,1,8.8-3.6,12.409,12.409,0,0,1,8.8,3.6,11.761,11.761,0,0,1,3.6,8.8A13.493,13.493,0,0,1,341.2,368.8Z"/></g></svg>