<svg xmlns="http://www.w3.org/2000/svg" xmlns:xlink="http://www.w3.org/1999/xlink" width="100.459" height="97.219" viewBox="0 0 100.459 97.219"><defs><style>.a{fill:url(#a);}</style><linearGradient id="a" x1="0.5" x2="0.5" y2="1" gradientUnits="objectBoundingBox"><stop offset="0" stop-color="#6055e0"/><stop offset="1" stop-color="#0ed7ce"/></linearGradient></defs><g transform="translate(0 -0.125)"><path class="a" d="M8.1,87.622H50.229V84.381H8.1A4.861,4.861,0,0,1,3.24,79.52V8.226A4.861,4.861,0,0,1,8.1,3.365H79.395a4.86,4.86,0,0,1,4.861,4.861V45.493H87.5V8.226a8.111,8.111,0,0,0-8.1-8.1H8.1A8.112,8.112,0,0,0,0,8.226V79.52A8.113,8.113,0,0,0,8.1,87.622Zm0,0"/><path class="a" d="M62.344,62.469h3.24v3.24h-3.24Zm0,0" transform="translate(-55.862 -55.862)"/><path class="a" d="M124.676,62.469h3.241v3.24h-3.241Zm0,0" transform="translate(-111.714 -55.862)"/><path class="a" d="M187.016,62.469h3.241v3.24h-3.241Zm0,0" transform="translate(-167.572 -55.862)"/><path class="a" d="M62.344,124.8h74.534v3.241H62.344Zm0,0" transform="translate(-55.862 -111.714)"/><path class="a" d="M78.6,191.707l-4.116,4.116a8.127,8.127,0,1,0,2.291,2.291L80.891,194Zm-8.577,15.728a4.86,4.86,0,1,1,0-9.721,4.776,4.776,0,0,1,2.083.485l-3.227,3.228,2.291,2.291,3.23-3.226a4.771,4.771,0,0,1,.486,2.082A4.86,4.86,0,0,1,70.023,207.435Zm0,0" transform="translate(-55.441 -171.664)"/><path class="a" d="M264.941,249.484h27.545v3.24H264.941Zm0,0" transform="translate(-237.396 -223.434)"/><path class="a" d="M264.941,311.82h11.342v3.24H264.941Zm0,0" transform="translate(-237.396 -279.289)"/><path class="a" d="M405.2,311.82h22.684v3.24H405.2Zm0,0" transform="translate(-363.075 -279.289)"/><path class="a" d="M561.047,249.484h16.2v3.24h-16.2Zm0,0" transform="translate(-502.716 -223.434)"/><path class="a" d="M78.6,378.723l-4.116,4.116a8.127,8.127,0,1,0,2.291,2.291l4.115-4.116Zm-8.577,15.728a4.861,4.861,0,0,1,0-9.722,4.78,4.78,0,0,1,2.083.486l-3.227,3.229,2.291,2.29,3.23-3.226a4.774,4.774,0,0,1,.486,2.082A4.861,4.861,0,0,1,70.023,394.451Zm0,0" transform="translate(-55.441 -339.236)"/><path class="a" d="M264.941,436.492h27.545v3.241H264.941Zm0,0" transform="translate(-237.396 -390.999)"/><path class="a" d="M264.941,498.836h11.342v3.24H264.941Zm0,0" transform="translate(-237.396 -446.861)"/><path class="a" d="M405.2,498.836h12.962v3.24H405.2Zm0,0" transform="translate(-363.075 -446.861)"/><path class="a" d="M561.047,436.492h6.481v3.241h-6.481Zm0,0" transform="translate(-502.716 -390.999)"/><path class="a" d="M78.6,565.738l-4.116,4.116a8.126,8.126,0,1,0,2.291,2.291l4.115-4.115Zm-8.577,15.728a4.861,4.861,0,0,1,0-9.722,4.767,4.767,0,0,1,2.083.486l-3.227,3.229,2.291,2.291,3.23-3.226a4.776,4.776,0,0,1,.486,2.082A4.861,4.861,0,0,1,70.023,581.466Zm0,0" transform="translate(-55.441 -506.807)"/><path class="a" d="M264.941,623.512H286v3.241H264.941Zm0,0" transform="translate(-237.396 -558.575)"/><path class="a" d="M264.941,685.852h11.342v3.24H264.941Zm0,0" transform="translate(-237.396 -614.433)"/><path class="a" d="M405.2,685.852h6.481v3.24H405.2Zm0,0" transform="translate(-363.075 -614.433)"/><path class="a" d="M523.016,516.274a24.3,24.3,0,1,0-24.3-24.3A24.3,24.3,0,0,0,523.016,516.274Zm0-45.369a21.064,21.064,0,1,1-21.065,21.064A21.064,21.064,0,0,1,523.016,470.9Zm0,0" transform="translate(-446.861 -418.93)"/><path class="a" d="M612.421,594.707l-2.9,1.448,3.241,6.481a1.619,1.619,0,0,0,1.19.876,1.793,1.793,0,0,0,.251.021,1.623,1.623,0,0,0,1.146-.475l19.443-19.444-2.291-2.291-17.855,17.854Zm0,0" transform="translate(-546.15 -520.773)"/></g></svg>