<svg xmlns="http://www.w3.org/2000/svg" xmlns:xlink="http://www.w3.org/1999/xlink" width="94" height="94" viewBox="0 0 94 94"><defs><style>.a{fill:url(#a);}</style><linearGradient id="a" x1="0.5" x2="0.5" y2="1" gradientUnits="objectBoundingBox"><stop offset="0" stop-color="#6055e0"/><stop offset="1" stop-color="#0ed7ce"/></linearGradient></defs><g transform="translate(0 0)"><path class="a" d="M83.2,38.555A19.685,19.685,0,0,0,55.446,10.8,19.687,19.687,0,0,0,18.193,19.71c0,.547.038,1.085.082,1.622A39.407,39.407,0,0,0,39.419,94,39.117,39.117,0,0,0,72.668,75.725c.537.044,1.075.082,1.622.082A19.687,19.687,0,0,0,83.2,38.554ZM68.226,9.1A16.678,16.678,0,1,1,51.548,25.775,16.7,16.7,0,0,1,68.226,9.1ZM48.516,60.646h-9.1a1.516,1.516,0,1,1,0-3.032H47a4.548,4.548,0,1,0,0-9.1H33.355a1.516,1.516,0,0,1,0-3.032h24.36A19.437,19.437,0,0,0,54.58,56.1a19.7,19.7,0,0,0,9.255,16.678H47a1.516,1.516,0,1,1,0-3.032h1.516a4.548,4.548,0,1,0,0-9.1ZM37.9,3.033A16.741,16.741,0,0,1,53.175,13.077a19.644,19.644,0,0,0-3.744,18.63A16.471,16.471,0,0,1,37.9,36.388a16.678,16.678,0,1,1,0-33.355ZM4.172,45.484H21.226a1.516,1.516,0,0,1,0,3.032H13.645a4.548,4.548,0,0,0,0,9.1H27.29a1.516,1.516,0,0,1,0,3.032H3.547a36.4,36.4,0,0,1-.515-6.065,36.874,36.874,0,0,1,1.14-9.1Zm3.756,27.29H34.871a1.516,1.516,0,1,1,0,3.032H28.806a4.548,4.548,0,0,0,0,9.1H47a1.517,1.517,0,0,1,1.516,1.516v3.408a36.874,36.874,0,0,1-9.1,1.14A36.4,36.4,0,0,1,7.928,72.775Zm43.621,16.13V86.42A4.554,4.554,0,0,0,47,81.872H28.806a1.516,1.516,0,1,1,0-3.032h6.065a4.548,4.548,0,0,0,0-9.1H6.354a36.138,36.138,0,0,1-2.171-6.065H27.29a4.548,4.548,0,0,0,0-9.1H13.645a1.516,1.516,0,0,1,0-3.032h7.581a4.548,4.548,0,1,0,0-9.1H5.1A36.1,36.1,0,0,1,18.828,24.584,19.728,19.728,0,0,0,37.9,39.42a19.456,19.456,0,0,0,12.77-4.726,19.834,19.834,0,0,0,7.1,7.758H33.355a4.548,4.548,0,1,0,0,9.1H47a1.516,1.516,0,1,1,0,3.032H39.419a4.548,4.548,0,1,0,0,9.1h9.1a1.516,1.516,0,1,1,0,3.032H47a4.548,4.548,0,0,0,0,9.1H68.961a36.055,36.055,0,0,1-17.413,13.1ZM74.29,72.775A16.7,16.7,0,0,1,57.613,56.1a16.471,16.471,0,0,1,4.68-11.529,19.644,19.644,0,0,0,18.63-3.744,16.66,16.66,0,0,1-6.633,31.95Zm0,0" transform="translate(0)"/><path class="a" d="M334.065,85.226a3.035,3.035,0,0,1-3.032-3.032H328a6.056,6.056,0,0,0,4.548,5.849V91.29h3.032V88.258h4.548V82.194a6.071,6.071,0,0,0-6.065-6.065,3.035,3.035,0,0,1-3.032-3.032V70.065h3.032A3.035,3.035,0,0,1,337.1,73.1h3.032a6.056,6.056,0,0,0-4.548-5.849V64h-3.032v3.032H328V73.1a6.071,6.071,0,0,0,6.065,6.065,3.035,3.035,0,0,1,3.032,3.032v3.032Zm0,0" transform="translate(-265.839 -51.871)"/><path class="a" d="M400,128h3.032v3.032H400Zm0,0" transform="translate(-324.194 -103.742)"/><path class="a" d="M304,128h3.032v3.032H304Zm0,0" transform="translate(-246.387 -103.742)"/><path class="a" d="M134.065,51.71a7.581,7.581,0,1,0,15.161,0h-3.032a4.548,4.548,0,1,1-9.1,0V50.194h6.065V47.161H137.1V44.129h6.065V41.1H137.1V39.581a4.548,4.548,0,1,1,9.1,0h3.032a7.581,7.581,0,1,0-15.161,0V41.1H128v3.032h6.065v3.032H128v3.032h6.065Zm0,0" transform="translate(-103.742 -25.935)"/><path class="a" d="M363.341,244.815l-2.332-1.944-6.415,7.7-6.415-7.7-2.332,1.944,7.231,8.675v.966h-6.065v3.032h6.065v3.032h-6.065v3.032h6.065v3.032h3.032v-3.032h6.065v-3.032H356.11v-3.032h6.065v-3.032H356.11v-.966Zm0,0" transform="translate(-280.304 -196.843)"/></g></svg>