<?xml version="1.0" encoding="utf-8"?>
<!-- Generator: Adobe Illustrator 16.0.0, SVG Export Plug-In . SVG Version: 6.00 Build 0)  -->
<!DOCTYPE svg PUBLIC "-//W3C//DTD SVG 1.1//EN" "http://www.w3.org/Graphics/SVG/1.1/DTD/svg11.dtd">
<svg version="1.1" id="Capa_1" xmlns="http://www.w3.org/2000/svg" xmlns:xlink="http://www.w3.org/1999/xlink" x="0px" y="0px"
	 width="512px" height="512px" viewBox="0 0 512 512" enable-background="new 0 0 512 512" xml:space="preserve">
<g>
	<linearGradient id="SVGID_1_" gradientUnits="userSpaceOnUse" x1="76.4302" y1="155.0073" x2="435.5703" y2="155.0073">
		<stop  offset="0" style="stop-color:#0ED7CE"/>
		<stop  offset="1" style="stop-color:#6055E0"/>
	</linearGradient>
	<path fill="url(#SVGID_1_)" d="M430.019,102.484l-193.749-41.3c-0.003,0-0.007,0-0.009-0.001c-0.249-0.052-0.501-0.093-0.759-0.118
		c-0.047-0.005-0.095-0.003-0.143-0.007c-0.182-0.015-0.365-0.028-0.55-0.028H83.445c-3.874,0-7.015,3.141-7.015,7.015v58.906
		c0,3.873,3.141,7.014,7.015,7.014s7.014-3.141,7.014-7.014V75.058h61.653v35.488h-4.817c-3.874,0-7.015,3.141-7.015,7.015
		c0,3.873,3.141,7.014,7.015,7.014h4.817v60.864h-4.817c-3.874,0-7.015,3.141-7.015,7.015s3.141,7.015,7.015,7.015h4.817v35.487
		H90.459v-51.892c0-3.873-3.14-7.014-7.014-7.014s-7.015,3.141-7.015,7.014v58.906c0,3.873,3.141,7.015,7.015,7.015h151.361h193.749
		c3.874,0,7.016-3.142,7.016-7.015V109.344C435.57,106.033,433.256,103.174,430.019,102.484z M166.141,199.467h4.817
		c3.874,0,7.015-3.141,7.015-7.015s-3.141-7.014-7.015-7.014h-4.817v-60.864h4.817c3.874,0,7.015-3.141,7.015-7.015
		s-3.141-7.014-7.015-7.014h-4.817V75.058h61.652v159.897h-61.652V199.467L166.141,199.467z M421.541,234.956h-179.72V76.711
		l179.72,38.309V234.956L421.541,234.956z"/>
	<linearGradient id="SVGID_2_" gradientUnits="userSpaceOnUse" x1="344.4297" y1="172.1035" x2="358.459" y2="172.1035">
		<stop  offset="0" style="stop-color:#0ED7CE"/>
		<stop  offset="1" style="stop-color:#6055E0"/>
	</linearGradient>
	<path fill="url(#SVGID_2_)" d="M351.445,223.748c3.873,0,7.014-3.141,7.014-7.015v-89.259c0-3.874-3.141-7.015-7.014-7.015
		c-3.875,0-7.016,3.141-7.016,7.015v89.259C344.431,220.607,347.57,223.748,351.445,223.748z"/>
	<linearGradient id="SVGID_3_" gradientUnits="userSpaceOnUse" x1="383.957" y1="176.3159" x2="397.9863" y2="176.3159">
		<stop  offset="0" style="stop-color:#0ED7CE"/>
		<stop  offset="1" style="stop-color:#6055E0"/>
	</linearGradient>
	<path fill="url(#SVGID_3_)" d="M390.971,223.748c3.875,0,7.016-3.141,7.016-7.015v-80.834c0-3.874-3.141-7.015-7.016-7.015
		c-3.873,0-7.014,3.141-7.014,7.015v80.833C383.957,220.607,387.098,223.748,390.971,223.748z"/>
	<linearGradient id="SVGID_4_" gradientUnits="userSpaceOnUse" x1="304.9023" y1="167.8906" x2="318.9316" y2="167.8906">
		<stop  offset="0" style="stop-color:#0ED7CE"/>
		<stop  offset="1" style="stop-color:#6055E0"/>
	</linearGradient>
	<path fill="url(#SVGID_4_)" d="M311.918,223.748c3.874,0,7.014-3.141,7.014-7.015v-97.685c0-3.874-3.14-7.015-7.014-7.015
		s-7.016,3.141-7.016,7.015v97.685C304.902,220.607,308.044,223.748,311.918,223.748z"/>
	<linearGradient id="SVGID_5_" gradientUnits="userSpaceOnUse" x1="265.377" y1="163.6777" x2="279.4072" y2="163.6777">
		<stop  offset="0" style="stop-color:#0ED7CE"/>
		<stop  offset="1" style="stop-color:#6055E0"/>
	</linearGradient>
	<path fill="url(#SVGID_5_)" d="M272.393,223.748c3.873,0,7.015-3.141,7.015-7.015V110.622c0-3.873-3.142-7.014-7.015-7.014
		c-3.875,0-7.016,3.141-7.016,7.014v106.11C265.377,220.607,268.518,223.748,272.393,223.748z"/>
	<linearGradient id="SVGID_6_" gradientUnits="userSpaceOnUse" x1="76.4302" y1="155.0068" x2="90.46" y2="155.0068">
		<stop  offset="0" style="stop-color:#0ED7CE"/>
		<stop  offset="1" style="stop-color:#6055E0"/>
	</linearGradient>
	<path fill="url(#SVGID_6_)" d="M83.445,162.021c3.863,0,7.015-3.151,7.015-7.015c0-3.864-3.152-7.014-7.015-7.014
		c-3.864,0-7.015,3.151-7.015,7.014C76.43,158.869,79.582,162.021,83.445,162.021z"/>
</g>
<g>
	<linearGradient id="SVGID_7_" gradientUnits="userSpaceOnUse" x1="76.4302" y1="330.2959" x2="435.5703" y2="330.2959">
		<stop  offset="0" style="stop-color:#0ED7CE"/>
		<stop  offset="1" style="stop-color:#6055E0"/>
	</linearGradient>
	<path fill="url(#SVGID_7_)" d="M430.019,236.318l-193.749,0.154c-0.003,0-0.007,0-0.009-0.001
		c-0.249-0.052-0.501-0.093-0.759-0.118c-0.047-0.005-0.095-0.003-0.143-0.007c-0.182-0.015-0.365-0.028-0.55-0.028H83.445
		c-3.874,0-7.015,3.141-7.015,7.015v58.905c0,3.873,3.141,7.016,7.015,7.016s7.014-3.143,7.014-7.016v-51.891h61.653v35.489h-4.817
		c-3.874,0-7.015,3.141-7.015,7.014s3.141,7.017,7.015,7.017h4.817v60.862h-4.817c-3.874,0-7.015,3.142-7.015,7.015
		c0,3.875,3.141,7.016,7.015,7.016h4.817v35.486H90.459v-51.892c0-3.873-3.14-7.014-7.014-7.014s-7.015,3.141-7.015,7.014v58.906
		c0,3.873,3.141,7.015,7.015,7.015h151.361h193.749c3.874,0,7.016-3.142,7.016-7.015V243.178
		C435.57,239.867,433.256,237.009,430.019,236.318z M166.141,374.756h4.817c3.874,0,7.015-3.141,7.015-7.014
		c0-3.875-3.141-7.014-7.015-7.014h-4.817v-60.865h4.817c3.874,0,7.015-3.141,7.015-7.014s-3.141-7.015-7.015-7.015h-4.817v-35.489
		h61.652v159.897h-61.652V374.756L166.141,374.756z M421.541,410.244h-179.72V252l179.72-3.145V410.244L421.541,410.244z"/>
	<linearGradient id="SVGID_8_" gradientUnits="userSpaceOnUse" x1="344.4297" y1="341.7158" x2="358.459" y2="341.7158">
		<stop  offset="0" style="stop-color:#0ED7CE"/>
		<stop  offset="1" style="stop-color:#6055E0"/>
	</linearGradient>
	<path fill="url(#SVGID_8_)" d="M351.445,399.037c3.873,0,7.014-3.141,7.014-7.016V291.41c0-3.875-3.141-7.016-7.014-7.016
		c-3.875,0-7.016,3.141-7.016,7.016v100.611C344.431,395.896,347.57,399.037,351.445,399.037z"/>
	<linearGradient id="SVGID_9_" gradientUnits="userSpaceOnUse" x1="383.957" y1="331.5371" x2="397.9863" y2="331.5371">
		<stop  offset="0" style="stop-color:#0ED7CE"/>
		<stop  offset="1" style="stop-color:#6055E0"/>
	</linearGradient>
	<path fill="url(#SVGID_9_)" d="M390.971,399.037c3.875,0,7.016-3.141,7.016-7.016V271.05c0-3.873-3.141-7.014-7.016-7.014
		c-3.873,0-7.014,3.141-7.014,7.014v120.972C383.957,395.896,387.098,399.037,390.971,399.037z"/>
	<linearGradient id="SVGID_10_" gradientUnits="userSpaceOnUse" x1="304.9023" y1="337.502" x2="318.9316" y2="337.502">
		<stop  offset="0" style="stop-color:#0ED7CE"/>
		<stop  offset="1" style="stop-color:#6055E0"/>
	</linearGradient>
	<path fill="url(#SVGID_10_)" d="M311.918,399.037c3.874,0,7.014-3.141,7.014-7.016V282.984c0-3.875-3.14-7.017-7.014-7.017
		s-7.016,3.142-7.016,7.017v109.037C304.902,395.896,308.044,399.037,311.918,399.037z"/>
	<linearGradient id="SVGID_11_" gradientUnits="userSpaceOnUse" x1="265.377" y1="333.29" x2="279.4072" y2="333.29">
		<stop  offset="0" style="stop-color:#0ED7CE"/>
		<stop  offset="1" style="stop-color:#6055E0"/>
	</linearGradient>
	<path fill="url(#SVGID_11_)" d="M272.393,399.037c3.873,0,7.015-3.141,7.015-7.016V274.559c0-3.873-3.142-7.016-7.015-7.016
		c-3.875,0-7.016,3.143-7.016,7.016v117.463C265.377,395.896,268.518,399.037,272.393,399.037z"/>
	<linearGradient id="SVGID_12_" gradientUnits="userSpaceOnUse" x1="76.4302" y1="330.2959" x2="90.46" y2="330.2959">
		<stop  offset="0" style="stop-color:#0ED7CE"/>
		<stop  offset="1" style="stop-color:#6055E0"/>
	</linearGradient>
	<path fill="url(#SVGID_12_)" d="M83.445,337.311c3.863,0,7.015-3.151,7.015-7.016c0-3.863-3.152-7.014-7.015-7.014
		c-3.864,0-7.015,3.15-7.015,7.014C76.43,334.159,79.582,337.311,83.445,337.311z"/>
</g>
</svg>
