<svg xmlns="http://www.w3.org/2000/svg" xmlns:xlink="http://www.w3.org/1999/xlink" width="51.866" height="51.866" viewBox="0 0 51.866 51.866"><defs><style>.a{fill:url(#a);}</style><linearGradient id="a" x1="0.5" x2="0.5" y2="1" gradientUnits="objectBoundingBox"><stop offset="0" stop-color="#6055e0"/><stop offset="1" stop-color="#0ed7ce"/></linearGradient></defs><g transform="translate(29.391 22.475)"><path class="a" d="M291.882,208H274.593A2.593,2.593,0,0,0,272,210.593v24.2a2.593,2.593,0,0,0,2.593,2.593h17.289a2.593,2.593,0,0,0,2.593-2.593v-24.2A2.593,2.593,0,0,0,291.882,208Zm-9.509,27.662h-7.78a.864.864,0,0,1-.864-.864v-6.051h8.644Zm0-8.644h-8.644V220.1h8.644Zm10.373,7.78a.864.864,0,0,1-.864.864H284.1v-6.915h8.644Zm0-7.78H284.1V220.1h8.644Zm0-8.644H273.729v-7.78a.864.864,0,0,1,.864-.864h17.289a.864.864,0,0,1,.864.864Z" transform="translate(-272 -208)"/></g><g transform="translate(32.848 25.933)"><path class="a" d="M318.7,240H304.864a.865.865,0,0,0-.864.864v3.458a.865.865,0,0,0,.864.864H318.7a.864.864,0,0,0,.864-.864v-3.458A.864.864,0,0,0,318.7,240Zm-.864,3.458h-12.1v-1.729h12.1Z" transform="translate(-304 -240)"/></g><g transform="translate(32.848 35.442)"><path class="a" d="M307.458,329.729V328h-1.729v1.729H304v1.729h1.729v1.729h1.729v-1.729h1.729v-1.729Z" transform="translate(-304 -328)"/></g><g transform="translate(43.484 37.166)"><g transform="translate(0 0)"><rect class="a" width="4.914" height="1.404" transform="translate(0 0)"/></g></g><g transform="translate(32.997 44.339)"><path class="a" d="M310.265,411.566l-1.222-1.222-1.222,1.222-1.222-1.222-1.222,1.222,1.222,1.222-1.222,1.222,1.222,1.222,1.222-1.222,1.222,1.222,1.222-1.222-1.222-1.222Z" transform="translate(-305.376 -410.344)"/></g><g transform="translate(43.484 45.59)"><g transform="translate(0 0)"><rect class="a" width="4.914" height="2.106" transform="translate(0)"/></g></g><g transform="translate(44.888 47.696)"><g transform="translate(0 0)"><rect class="a" width="2.106" height="1.404" transform="translate(0 0)"/></g></g><g transform="translate(44.888 44.186)"><g transform="translate(0 0)"><rect class="a" width="2.106" height="1.404" transform="translate(0 0)"/></g></g><path class="a" d="M34.577,0H9.509V.008A.858.858,0,0,0,8.9.253L.253,8.9a.856.856,0,0,0-.245.611H0V50.137a1.729,1.729,0,0,0,1.729,1.729H27.662V50.137H22.475V47.544H24.2a.864.864,0,0,0,.864-.864V42.357a.864.864,0,0,0-.864-.864H22.475V38.9H24.2a.864.864,0,0,0,.864-.864V33.713a.864.864,0,0,0-.864-.864h-.022a8.644,8.644,0,1,0-10.328,0H6.915a.864.864,0,0,0-.864.864v3.458H4.322a.864.864,0,0,0-.864.864v4.322a.864.864,0,0,0,.864.864H6.051v2.593H4.322a.864.864,0,0,0-.864.864v3.458H1.729V10.373H8.644a1.729,1.729,0,0,0,1.729-1.729V1.729h24.2V20.746h1.729V1.729A1.729,1.729,0,0,0,34.577,0ZM23.34,43.222v2.593H7.78V43.222ZM12.1,25.933a6.915,6.915,0,1,1,6.915,6.915A6.915,6.915,0,0,1,12.1,25.933ZM7.78,34.577H23.34v2.593H7.78ZM5.187,41.493V38.9h15.56v2.593H5.187Zm0,6.051h15.56v2.593H5.187Zm3.458-38.9H2.951L8.644,2.951Z"/><g transform="translate(16.424 20.746)"><path class="a" d="M154.593,194.593h2.593v-1.729h-1.729V192h-1.729v1.023a2.587,2.587,0,0,0,.864,5.028.864.864,0,1,1,0,1.729H152v1.729h1.729v.864h1.729V201.35a2.587,2.587,0,0,0-.864-5.028.864.864,0,0,1,0-1.729Z" transform="translate(-152 -192)"/></g><g transform="translate(13.296 6.978)"><g transform="translate(0 0)"><rect class="a" width="14.743" height="1.404"/></g></g><g transform="translate(3.467 11.892)"><g transform="translate(0 0)"><rect class="a" width="29.486" height="2.106"/></g></g><g transform="translate(3.467 15.402)"><g transform="translate(0 0)"><rect class="a" width="10.531" height="2.106" transform="translate(0 0)"/></g></g><g transform="translate(25.231 15.402)"><g transform="translate(0 0)"><rect class="a" width="7.723" height="2.106" transform="translate(0 0)"/></g></g></svg>