<svg xmlns="http://www.w3.org/2000/svg" xmlns:xlink="http://www.w3.org/1999/xlink" width="76.547" height="52.185" viewBox="0 0 76.547 52.185"><defs><style>.a{fill:url(#a);}</style><linearGradient id="a" x1="0.5" x2="0.5" y2="1" gradientUnits="objectBoundingBox"><stop offset="0" stop-color="#6055e0"/><stop offset="1" stop-color="#0ed7ce"/></linearGradient></defs><path class="a" d="M62.581,656.666a7.068,7.068,0,0,0-4.988,2.057,6.926,6.926,0,0,0,0,9.913,7.1,7.1,0,0,0,4.988,2.057,7.014,7.014,0,0,0,0-14.028Zm0,10.911a3.9,3.9,0,1,1,0-7.793,3.9,3.9,0,0,1,0,7.793ZM64.389,633.3a1.513,1.513,0,0,0-1.044-.405h-8a1.563,1.563,0,0,0-1.559,1.559v12.781a1.563,1.563,0,0,0,1.559,1.559H68.036a1.563,1.563,0,0,0,1.559-1.559v-8.557a1.56,1.56,0,0,0-.514-1.153Zm2.089,12.376h-9.57V636h5.829l3.741,3.367Zm-41.96,10.989a7.068,7.068,0,0,0-4.988,2.057,6.926,6.926,0,0,0,0,9.913,7.1,7.1,0,0,0,4.988,2.057,7.014,7.014,0,0,0,0-14.028Zm0,10.911a3.9,3.9,0,1,1,0-7.793,3.9,3.9,0,0,1,0,7.793Zm-10.4-8.994H10.989v-4.146a1.559,1.559,0,0,0-3.117,0v5.7A1.563,1.563,0,0,0,9.43,661.7h4.692a1.559,1.559,0,1,0,0-3.117Zm7.9-8.495a1.563,1.563,0,0,0-1.559-1.559H1.559a1.559,1.559,0,0,0,0,3.117H20.465A1.553,1.553,0,0,0,22.024,650.089Zm-17.3-5.627,18.907.109a1.574,1.574,0,0,0,1.574-1.543,1.544,1.544,0,0,0-1.543-1.574l-18.907-.109H4.738a1.559,1.559,0,0,0-.016,3.117Zm3.18-7.076H26.809a1.559,1.559,0,0,0,0-3.117H7.9a1.559,1.559,0,0,0,0,3.117Zm68.067-2.1h0l-11.16-9.243a1.536,1.536,0,0,0-1-.359H50.688v-5.611a1.563,1.563,0,0,0-1.559-1.559H9.43a1.563,1.563,0,0,0-1.559,1.559v11.409a1.559,1.559,0,0,0,3.117,0v-9.851h36.6v36.956H34.805a1.559,1.559,0,1,0,0,3.117H53.837a1.559,1.559,0,1,0,0-3.117H50.7V628.8H63.267l10.163,8.417-.109,21.338H71.7a1.559,1.559,0,0,0,0,3.117h3.164a1.55,1.55,0,0,0,1.559-1.543l.125-23.63A1.647,1.647,0,0,0,75.97,635.281Z" transform="translate(0 -618.51)"/></svg>