<svg xmlns="http://www.w3.org/2000/svg" xmlns:xlink="http://www.w3.org/1999/xlink" width="62" height="62" viewBox="0 0 62 62"><defs><style>.a{fill:url(#a);}</style><linearGradient id="a" x1="0.5" x2="0.5" y2="1" gradientUnits="objectBoundingBox"><stop offset="0" stop-color="#6055e0"/><stop offset="1" stop-color="#0ed7ce"/></linearGradient></defs><g transform="translate(-1 -1)"><path class="a" d="M27,35V26a11.01,11.01,0,0,0-8.19-10.623,8,8,0,1,0-9.62,0A11.01,11.01,0,0,0,1,26v9a4,4,0,0,0,4,4H6.052L5.024,58.559a4.008,4.008,0,0,0,3.54,4.418A4.333,4.333,0,0,0,9,63a4,4,0,0,0,3.975-3.566L14,49.625l1.025,9.814A3.992,3.992,0,0,0,19,63a4.334,4.334,0,0,0,.446-.024,3.992,3.992,0,0,0,3.536-4.359L21.949,39H23a4,4,0,0,0,4-4ZM13.853,33,12.264,23h3.471L14.146,33Zm2.2-12H11.947l-.63-3.965c.226-.017.452-.035.683-.035h4c.231,0,.457.018.683.035ZM8,9a6,6,0,1,1,6,6A6.006,6.006,0,0,1,8,9ZM5,37a2,2,0,0,1-2-2V26a9.015,9.015,0,0,1,6.35-8.6L11.829,33H8.371L9,21.053l-2-.1L6.157,37ZM19.23,60.986A2.148,2.148,0,0,1,19,61a1.994,1.994,0,0,1-1.985-1.773L15.109,41H17V39H11v2h1.891l-1.9,18.22a2,2,0,0,1-2.209,1.768,2.016,2.016,0,0,1-1.761-2.266L8.265,35h11.47l1.252,23.779a2,2,0,0,1-1.757,2.207ZM21,20.947l-2,.1L19.63,33H16.171L18.65,17.4A9.015,9.015,0,0,1,25,26v9a2,2,0,0,1-2,2H21.843Z"/><path class="a" d="M55.636,23a7.309,7.309,0,0,0-3.695,1H43v2h6.586L27.072,48.514,24.758,61.243l12.729-2.314L60.843,35.573A7.365,7.365,0,0,0,55.636,23ZM36.781,53H34.414L49.5,37.914,52.586,41,37.542,56.044Zm-6.825-4.542L45,33.414,48.086,36.5,33,51.586V49.219ZM46.414,32,48,30.414,55.586,38,54,39.586ZM28.793,50.229,31,50.781V55h4.219l.552,2.207-8.529,1.551ZM59.429,34.157,57,36.586,49.414,29l2.429-2.429a5.364,5.364,0,0,1,7.586,7.586Z"/><path class="a" d="M39,6.414l3.707-3.707L41.293,1.293,38.586,4H29V14H39ZM31,12V6h5.586L34,8.586,32.707,7.293,31.293,8.707,34,11.414l3-3V12Z"/><path class="a" d="M39,16H29V26H39Zm-2,8H31V18h6Z"/><path class="a" d="M53,12h2v2H53Z"/><path class="a" d="M43,12h8v2H43Z"/><path class="a" d="M43,8H55v2H43Z"/><path class="a" d="M43,4H55V6H43Z"/><path class="a" d="M43,20H55v2H43Z"/><path class="a" d="M43,16H55v2H43Z"/></g></svg>