<svg xmlns="http://www.w3.org/2000/svg" xmlns:xlink="http://www.w3.org/1999/xlink" width="48" height="60" viewBox="0 0 48 60"><defs><style>.a{fill:url(#a);}</style><linearGradient id="a" x1="0.5" x2="0.5" y2="1" gradientUnits="objectBoundingBox"><stop offset="0" stop-color="#6055e0"/><stop offset="1" stop-color="#0ed7ce"/></linearGradient></defs><g transform="translate(-6)"><path class="a" d="M45,25H20a1,1,0,0,0,0,2H45a1,1,0,0,0,0-2Z"/><path class="a" d="M20,19H30a1,1,0,0,0,0-2H20a1,1,0,0,0,0,2Z"/><path class="a" d="M45,33H20a1,1,0,0,0,0,2H45a1,1,0,0,0,0-2Z"/><path class="a" d="M45,41H20a1,1,0,0,0,0,2H45a1,1,0,0,0,0-2Z"/><path class="a" d="M45,49H20a1,1,0,0,0,0,2H45a1,1,0,0,0,0-2Z"/><path class="a" d="M49,14.586V0H6V55h5v5H54V19.586ZM40,8.414l9,9L50.586,19H40ZM8,53V2H47V12.586L39.414,5H11V53Zm5,5V7H38V21H52V58Z"/></g></svg>