<svg xmlns="http://www.w3.org/2000/svg" xmlns:xlink="http://www.w3.org/1999/xlink" width="60.988" height="60.988" viewBox="0 0 60.988 60.988"><defs><style>.a{fill:url(#a);}</style><linearGradient id="a" x1="0.5" x2="0.5" y2="1" gradientUnits="objectBoundingBox"><stop offset="0" stop-color="#6055e0"/><stop offset="1" stop-color="#0ed7ce"/></linearGradient></defs><path class="a" d="M55.032,9.038h-13.1V1.191A1.191,1.191,0,0,0,40.738,0H1.191A1.191,1.191,0,0,0,0,1.191V5.941a1.191,1.191,0,0,0,2.382,0V2.382H39.547V9.038H15.485a5.963,5.963,0,0,0-5.956,5.956V26.673a3.578,3.578,0,0,1-3.253,3.559H5.956a1.221,1.221,0,0,0-.155.011,3.578,3.578,0,0,1-3.419-3.57V15.47A1.191,1.191,0,0,0,0,15.47v11.2a5.963,5.963,0,0,0,5.956,5.956h13.1V59.8a1.191,1.191,0,0,0,1.191,1.191H59.8A1.191,1.191,0,0,0,60.988,59.8v-44.8a5.963,5.963,0,0,0-5.956-5.956ZM21.441,15.009v-.015a5.924,5.924,0,0,0-1.183-3.558H55.032a3.577,3.577,0,0,1,3.574,3.574V58.59H21.441ZM11.912,26.673V15.009a3.574,3.574,0,0,1,7.147,0V30.231h-8.33a5.925,5.925,0,0,0,1.183-3.559Zm0,0"/><path class="a" d="M364.495,136.68a6.916,6.916,0,0,0-6.909,6.909v.015a6.909,6.909,0,0,0,13.818,0s0-.005,0-.007,0-.005,0-.007A6.916,6.916,0,0,0,364.495,136.68Zm0,11.435a4.519,4.519,0,1,1,4.526-4.519A4.532,4.532,0,0,1,364.495,148.115Zm0,0" transform="translate(-314.991 -120.399)"/><path class="a" d="M398.51,173.891a1.192,1.192,0,0,0-1.684,0l-1.143,1.143-.021-.021a1.2,1.2,0,0,0-1.685,1.7l.864.864a1.191,1.191,0,0,0,1.684,0l1.986-1.985a1.21,1.21,0,0,0,0-1.7Zm0,0" transform="translate(-346.74 -152.87)"/><path class="a" d="M219.045,437.871h-9.529a1.192,1.192,0,0,0-1.191,1.191s0,.005,0,.008,0,0,0,.007a1.192,1.192,0,0,0,1.191,1.191h9.529a1.191,1.191,0,0,0,1.191-1.191v-.015A1.191,1.191,0,0,0,219.045,437.871Zm0,0" transform="translate(-183.509 -385.713)"/><path class="a" d="M330.361,438.223a1.191,1.191,0,0,0-2.033.843s0,0,0,.007,0,0,0,.007a1.191,1.191,0,0,0,2.382,0v-.014A1.2,1.2,0,0,0,330.361,438.223Zm0,0" transform="translate(-289.218 -385.716)"/><path class="a" d="M386.729,389.871h-7.862a1.191,1.191,0,0,0-1.191,1.191v.015a1.191,1.191,0,0,0,1.191,1.191h7.862a1.192,1.192,0,0,0,1.191-1.191s0-.005,0-.007,0-.005,0-.008A1.192,1.192,0,0,0,386.729,389.871Zm0,0" transform="translate(-332.688 -343.43)"/><path class="a" d="M386.729,341.871h-7.862a1.191,1.191,0,0,0-1.191,1.191v.015a1.191,1.191,0,0,0,1.191,1.191h7.862a1.192,1.192,0,0,0,1.191-1.191s0-.005,0-.007,0-.005,0-.008A1.192,1.192,0,0,0,386.729,341.871Zm0,0" transform="translate(-332.688 -301.148)"/><path class="a" d="M386.729,293.871h-7.862a1.191,1.191,0,0,0-1.191,1.191v.015a1.191,1.191,0,0,0,1.191,1.191h7.862a1.192,1.192,0,0,0,1.191-1.191s0-.005,0-.007,0-.005,0-.008A1.192,1.192,0,0,0,386.729,293.871Zm0,0" transform="translate(-332.688 -258.866)"/><path class="a" d="M386.729,437.871h-7.862a1.191,1.191,0,0,0-1.191,1.191v.015a1.191,1.191,0,0,0,1.191,1.191h7.862a1.192,1.192,0,0,0,1.191-1.191s0,0,0-.007,0-.005,0-.008A1.192,1.192,0,0,0,386.729,437.871Zm0,0" transform="translate(-332.688 -385.713)"/><path class="a" d="M209.515,392.272h14.294A1.191,1.191,0,0,0,225,391.081v-.015a1.191,1.191,0,0,0-1.191-1.191H209.515a1.191,1.191,0,0,0-1.191,1.191s0,0,0,.008,0,.005,0,.007A1.191,1.191,0,0,0,209.515,392.272Zm0,0" transform="translate(-183.509 -343.434)"/><path class="a" d="M209.515,344.272h14.294A1.191,1.191,0,0,0,225,343.081v-.015a1.191,1.191,0,0,0-1.191-1.191H209.515a1.191,1.191,0,0,0-1.191,1.191s0,0,0,.008,0,.005,0,.007A1.191,1.191,0,0,0,209.515,344.272Zm0,0" transform="translate(-183.509 -301.152)"/><path class="a" d="M209.515,296.272h14.294A1.191,1.191,0,0,0,225,295.081v-.015a1.191,1.191,0,0,0-1.191-1.191H209.515a1.191,1.191,0,0,0-1.191,1.191s0,0,0,.007,0,.005,0,.007A1.191,1.191,0,0,0,209.515,296.272Zm0,0" transform="translate(-183.509 -258.869)"/><path class="a" d="M208.942,150.2l5.532,3.038a1.191,1.191,0,0,0,1.147,0l5.531-3.038a1.191,1.191,0,0,0,.618-1.044v-6.09a1.191,1.191,0,0,0-.618-1.044l-5.531-3.038a1.192,1.192,0,0,0-1.147,0l-5.532,3.038a1.194,1.194,0,0,0-.618,1.046v6.088A1.191,1.191,0,0,0,208.942,150.2Zm4.917-3.377v3.344l-3.153-1.731V145.09Zm2.382,3.34v-3.34l3.146-1.729v3.342Zm-1.192-5.419L212,143.069l3.043-1.671,3.044,1.671Zm0,0" transform="translate(-183.509 -122.296)"/><path class="a" d="M1.191,82.257a1.191,1.191,0,1,0-.842-.349A1.2,1.2,0,0,0,1.191,82.257Zm0,0" transform="translate(0 -70.36)"/></svg>