<svg xmlns="http://www.w3.org/2000/svg" xmlns:xlink="http://www.w3.org/1999/xlink" width="67.71" height="38.369" viewBox="0 0 67.71 38.369"><defs><style>.a{fill:url(#a);}</style><linearGradient id="a" x1="0.5" x2="0.5" y2="1" gradientUnits="objectBoundingBox"><stop offset="0" stop-color="#6055e0"/><stop offset="1" stop-color="#0ed7ce"/></linearGradient></defs><g transform="translate(-16 -120)"><path class="a" d="M82.582,120H17.129A1.129,1.129,0,0,0,16,121.128v36.112a1.129,1.129,0,0,0,1.128,1.129H82.582a1.129,1.129,0,0,0,1.128-1.128V121.129A1.129,1.129,0,0,0,82.582,120Zm-64.325,2.257H47.6v33.855H18.257Zm31.6,0H64.526v33.855H62.269v-31.6H60.012v24.827H55.5V151.6h4.514v4.514H49.855Zm31.6,33.855H71.3V151.6h4.514v-2.257H71.3V124.514H69.04v31.6H66.783V122.257H81.453Z"/><path class="a" d="M48,152h2.257v29.341H48Z" transform="translate(-27.486 -27.486)"/><path class="a" d="M80,152h2.257v29.341H80Z" transform="translate(-54.972 -27.486)"/><path class="a" d="M112,152h2.257v29.341H112Z" transform="translate(-82.458 -27.486)"/><path class="a" d="M144,152h2.257v29.341H144Z" transform="translate(-109.944 -27.486)"/><path class="a" d="M176,152h2.257v29.341H176Z" transform="translate(-137.43 -27.486)"/><path class="a" d="M208,152h2.257v29.341H208Z" transform="translate(-164.916 -27.486)"/></g></svg>