<svg xmlns="http://www.w3.org/2000/svg" xmlns:xlink="http://www.w3.org/1999/xlink" width="47" height="60" viewBox="0 0 47 60"><defs><style>.a{fill:url(#a);}</style><linearGradient id="a" x1="0.5" x2="0.5" y2="1" gradientUnits="objectBoundingBox"><stop offset="0" stop-color="#6055e0"/><stop offset="1" stop-color="#0ed7ce"/></linearGradient></defs><g transform="translate(-6.5)"><path class="a" d="M38.914,0H6.5V60h47V14.586ZM39.5,3.414,50.086,14H39.5ZM8.5,58V2h29V16h14V58Z"/><path class="a" d="M42.5,21h-16a1,1,0,0,0,0,2h16a1,1,0,0,0,0-2Z"/><path class="a" d="M22.875,18.219l-4.3,3.441-1.367-1.367a1,1,0,1,0-1.414,1.414l2,2a1,1,0,0,0,1.331.074l5-4a1,1,0,0,0-1.249-1.562Z"/><path class="a" d="M42.5,32h-16a1,1,0,0,0,0,2h16a1,1,0,0,0,0-2Z"/><path class="a" d="M22.875,29.219l-4.3,3.441-1.367-1.367a1,1,0,0,0-1.414,1.414l2,2a1,1,0,0,0,1.331.074l5-4a1,1,0,0,0-1.249-1.562Z"/><path class="a" d="M42.5,43h-16a1,1,0,0,0,0,2h16a1,1,0,0,0,0-2Z"/><path class="a" d="M22.875,40.219l-4.3,3.441-1.367-1.367a1,1,0,1,0-1.414,1.414l2,2a1,1,0,0,0,1.331.074l5-4a1,1,0,0,0-1.249-1.562Z"/></g></svg>