<svg xmlns="http://www.w3.org/2000/svg" xmlns:xlink="http://www.w3.org/1999/xlink" width="70.331" height="56.265" viewBox="0 0 70.331 56.265"><defs><style>.a{fill:url(#a);}</style><linearGradient id="a" x1="0.5" x2="0.5" y2="1" gradientUnits="objectBoundingBox"><stop offset="0" stop-color="#6055e0"/><stop offset="1" stop-color="#0ed7ce"/></linearGradient></defs><path class="a" d="M301.568,111.033h-6.33v-3.517A3.454,3.454,0,0,0,291.722,104H280v2.344h11.722a1.107,1.107,0,0,1,1.172,1.172v12.894H280v2.344h26.96v7.033a1.107,1.107,0,0,1-1.172,1.172h-3.634a5.862,5.862,0,0,0-11.487,0H280V133.3h10.667a5.862,5.862,0,0,0,11.487,0h3.634a3.453,3.453,0,0,0,3.517-3.517V118.77Zm-5.157,24.616a3.517,3.517,0,1,1,3.517-3.517A3.454,3.454,0,0,1,296.41,135.649Zm-1.172-15.238v-7.033h5.392l6.33,6.33v.7Zm0,0" transform="translate(-238.973 -88.762)"/><path class="a" d="M378.418,284.743l2.321-2.321,1.658,1.658-2.32,2.321Zm0,0" transform="translate(-322.971 -241.041)"/><path class="a" d="M48.06,5.861A5.8,5.8,0,0,0,42.2,0H14.652A6.5,6.5,0,0,0,8.205,6.447V45.715H0v4.1a6.5,6.5,0,0,0,6.447,6.447H32.821a6.49,6.49,0,0,0,5.861-6.447V12.894H48.06ZM2.344,49.818V48.06H25.788v1.758a5.954,5.954,0,0,0,1.524,4.1H6.447a4.153,4.153,0,0,1-4.1-4.1ZM36.338,5.861V49.818a4.1,4.1,0,0,1-8.205,0v-4.1H10.55V6.447a4.153,4.153,0,0,1,4.1-4.1H37.51A6.316,6.316,0,0,0,36.338,5.861Zm9.377,4.689H38.682V5.861a3.517,3.517,0,1,1,7.033,0Zm0,0"/><path class="a" d="M128,40h9.377v2.344H128Zm0,0" transform="translate(-109.245 -34.139)"/><path class="a" d="M96,72h18.755v2.344H96Zm0,0" transform="translate(-81.934 -61.45)"/><path class="a" d="M96,112h18.755v2.344H96Zm0,0" transform="translate(-81.934 -95.589)"/><path class="a" d="M96,152h18.755v2.344H96Zm0,0" transform="translate(-81.934 -129.728)"/><path class="a" d="M96,192h18.755v2.344H96Zm0,0" transform="translate(-81.934 -163.868)"/><path class="a" d="M96,272h4.689v2.344H96Zm0,0" transform="translate(-81.934 -232.146)"/><path class="a" d="M144,272h4.689v2.344H144Zm0,0" transform="translate(-122.901 -232.146)"/><path class="a" d="M192,272h4.689v2.344H192Zm0,0" transform="translate(-163.868 -232.146)"/><path class="a" d="M96,232h18.755v2.344H96Zm0,0" transform="translate(-81.934 -198.007)"/></svg>