<svg xmlns="http://www.w3.org/2000/svg" xmlns:xlink="http://www.w3.org/1999/xlink" width="60.345" height="61.382" viewBox="0 0 60.345 61.382"><defs><style>.a{fill:url(#a);}</style><linearGradient id="a" x1="0.5" x2="0.5" y2="1" gradientUnits="objectBoundingBox"><stop offset="0" stop-color="#6055e0"/><stop offset="1" stop-color="#0ed7ce"/></linearGradient></defs><g transform="translate(-0.507)"><path class="a" d="M21.493,29.069A11.583,11.583,0,0,0,12.769,25a11.579,11.579,0,0,0-8.723,4.069,14.974,14.974,0,0,0,0,19.334l8.723,9.855L21.492,48.4A14.973,14.973,0,0,0,21.493,29.069ZM19.961,47.046,12.77,55.17,5.578,47.046a12.87,12.87,0,0,1,0-16.621,9.562,9.562,0,0,1,7.191-3.379,9.561,9.561,0,0,1,7.191,3.379A12.871,12.871,0,0,1,19.961,47.046Z" transform="translate(0 0.576)"/><path class="a" d="M48.956,25.071l6.613-7.454a11.242,11.242,0,0,0,0-14.543,8.651,8.651,0,0,0-13.227,0,11.242,11.242,0,0,0,0,14.543ZM43.873,4.433a6.606,6.606,0,0,1,10.166,0,9.142,9.142,0,0,1,0,11.826l-5.082,5.73-5.083-5.73A9.142,9.142,0,0,1,43.873,4.433Z" transform="translate(0.902)"/><path class="a" d="M52.652,54.518a1.023,1.023,0,0,0-1.223.773,3.549,3.549,0,0,1-.678,1.424,1.023,1.023,0,1,0,1.608,1.264,5.637,5.637,0,0,0,1.066-2.238A1.023,1.023,0,0,0,52.652,54.518Z" transform="translate(1.152 1.255)"/><path class="a" d="M32.055,31.007a3.6,3.6,0,0,1-1.281-.235,1.023,1.023,0,1,0-.729,1.912,5.649,5.649,0,0,0,2.008.369h.365a1.023,1.023,0,1,0,0-2.046Z" transform="translate(0.665 0.707)"/><path class="a" d="M29.644,24.737a1.023,1.023,0,0,0,.54-.154,3.531,3.531,0,0,1,1.487-.515,1.024,1.024,0,0,0-.224-2.035,5.548,5.548,0,0,0-2.347.812,1.023,1.023,0,0,0,.543,1.892Z" transform="translate(0.647 0.507)"/><path class="a" d="M18.133,58H16.087a1.023,1.023,0,0,0,0,2.046h2.046a1.023,1.023,0,0,0,0-2.046Z" transform="translate(0.335 1.336)"/><path class="a" d="M36.021,40c-.088,0-.175,0-.262.006a1.023,1.023,0,0,0,.041,2.045h.043l2,0a1.023,1.023,0,1,0,0-2.046Z" transform="translate(0.789 0.921)"/><path class="a" d="M35.516,24.046h2.046a1.023,1.023,0,1,0,0-2.046H35.516a1.023,1.023,0,0,0,0,2.046Z" transform="translate(0.783 0.507)"/><path class="a" d="M47.8,40a1.023,1.023,0,1,0,0,2.046h2.046a1.023,1.023,0,1,0,0-2.046Z" transform="translate(1.066 0.921)"/><path class="a" d="M51.443,32.023A1.022,1.022,0,0,0,50.42,31H48.374a1.023,1.023,0,1,0,0,2.046H50.42A1.023,1.023,0,0,0,51.443,32.023Z" transform="translate(1.079 0.714)"/><path class="a" d="M41.8,42.046h2.046a1.023,1.023,0,1,0,0-2.046H41.8a1.023,1.023,0,1,0,0,2.046Z" transform="translate(0.927 0.921)"/><path class="a" d="M43.562,24.046a1.023,1.023,0,1,0,0-2.046H41.516a1.023,1.023,0,1,0,0,2.046Z" transform="translate(0.921 0.507)"/><path class="a" d="M36.374,31a1.023,1.023,0,0,0,0,2.046H38.42a1.023,1.023,0,0,0,0-2.046Z" transform="translate(0.802 0.714)"/><path class="a" d="M45.443,32.023A1.022,1.022,0,0,0,44.42,31H42.374a1.023,1.023,0,1,0,0,2.046H44.42A1.023,1.023,0,0,0,45.443,32.023Z" transform="translate(0.941 0.714)"/><path class="a" d="M59.475,35.651a1.023,1.023,0,0,0-2.02.324,3.371,3.371,0,0,1,.043.565,3.583,3.583,0,0,1-.145,1.011,1.023,1.023,0,0,0,.695,1.27,1.038,1.038,0,0,0,.287.041,1.023,1.023,0,0,0,.982-.736,5.636,5.636,0,0,0,.227-1.579A5.438,5.438,0,0,0,59.475,35.651Z" transform="translate(1.308 0.801)"/><path class="a" d="M42.133,58H40.087a1.023,1.023,0,0,0,0,2.046h2.046a1.023,1.023,0,0,0,0-2.046Z" transform="translate(0.888 1.336)"/><path class="a" d="M36.133,58H34.087a1.023,1.023,0,1,0,0,2.046h2.046a1.023,1.023,0,0,0,0-2.046Z" transform="translate(0.75 1.336)"/><path class="a" d="M47.157,50.023A1.022,1.022,0,0,0,46.134,49H44.088a1.023,1.023,0,0,0,0,2.046h2.046A1.023,1.023,0,0,0,47.157,50.023Z" transform="translate(0.98 1.128)"/><path class="a" d="M41.157,50.023A1.022,1.022,0,0,0,40.134,49H38.088a1.023,1.023,0,1,0,0,2.046h2.046A1.023,1.023,0,0,0,41.157,50.023Z" transform="translate(0.842 1.128)"/><path class="a" d="M48.06,58H46.086a1.023,1.023,0,1,0,0,2.046H48.1l.03-1.023v1.023a.992.992,0,0,0,.987-1.023A1.053,1.053,0,0,0,48.06,58Z" transform="translate(1.026 1.336)"/><path class="a" d="M51.589,52.794a1.023,1.023,0,0,0,.8-1.655,5.671,5.671,0,0,0-1.922-1.563,1.023,1.023,0,0,0-.912,1.832,3.589,3.589,0,0,1,1.225,1A1.025,1.025,0,0,0,51.589,52.794Z" transform="translate(1.117 1.139)"/><path class="a" d="M55.4,39.731a3.552,3.552,0,0,1-1.383.277H53.8a1.023,1.023,0,1,0,0,2.046h.22a5.586,5.586,0,0,0,2.174-.437,1.023,1.023,0,0,0-.791-1.886Z" transform="translate(1.204 0.913)"/><path class="a" d="M28.064,29.945a1.025,1.025,0,0,0,.653-1.292,3.574,3.574,0,0,1-.178-1.113,4.012,4.012,0,0,1,.029-.459,1.023,1.023,0,0,0-2.03-.256,5.957,5.957,0,0,0-.045.71,5.631,5.631,0,0,0,.279,1.758,1.025,1.025,0,0,0,.972.7A.993.993,0,0,0,28.064,29.945Z" transform="translate(0.598 0.597)"/><path class="a" d="M24.133,58H22.087a1.023,1.023,0,0,0,0,2.046h2.046a1.023,1.023,0,0,0,0-2.046Z" transform="translate(0.473 1.336)"/><path class="a" d="M34.181,50.668a1.023,1.023,0,0,0,.427-1.953,3.619,3.619,0,0,1-1.256-.958,1.023,1.023,0,0,0-1.566,1.317,5.665,5.665,0,0,0,1.971,1.5A1.03,1.03,0,0,0,34.181,50.668Z" transform="translate(0.715 1.091)"/><path class="a" d="M56.824,31.755a5.563,5.563,0,0,0-2.37-.739,1.023,1.023,0,1,0-.16,2.04,3.522,3.522,0,0,1,1.5.469,1.023,1.023,0,1,0,1.026-1.77Z" transform="translate(1.217 0.714)"/><path class="a" d="M30.133,58H28.087a1.023,1.023,0,0,0,0,2.046h2.046a1.023,1.023,0,0,0,0-2.046Z" transform="translate(0.612 1.336)"/><path class="a" d="M32.6,44.908a3.554,3.554,0,0,1,.633-1.446,1.023,1.023,0,0,0-1.648-1.212,5.606,5.606,0,0,0-1,2.273,1.024,1.024,0,0,0,.812,1.2,1.023,1.023,0,0,0,1.2-.813Z" transform="translate(0.692 0.963)"/><path class="a" d="M49.12,15.253a5.627,5.627,0,1,0-5.627-5.627A5.634,5.634,0,0,0,49.12,15.253Zm0-9.207a3.581,3.581,0,1,1-3.581,3.581A3.585,3.585,0,0,1,49.12,6.046Z" transform="translate(0.99 0.092)"/><path class="a" d="M12.631,31a6.138,6.138,0,1,0,6.138,6.138A6.144,6.144,0,0,0,12.631,31Zm0,10.23a4.092,4.092,0,1,1,4.092-4.092A4.1,4.1,0,0,1,12.631,41.23Z" transform="translate(0.138 0.714)"/></g></svg>