<svg xmlns="http://www.w3.org/2000/svg" xmlns:xlink="http://www.w3.org/1999/xlink" width="55.417" height="62.901" viewBox="0 0 55.417 62.901"><defs><style>.a{fill:url(#a);}</style><linearGradient id="a" x1="0.5" x2="0.5" y2="1" gradientUnits="objectBoundingBox"><stop offset="0" stop-color="#6055e0"/><stop offset="1" stop-color="#0ed7ce"/></linearGradient></defs><g transform="translate(-0.36)"><path class="a" d="M190.53,162.37a.981.981,0,0,0-.354-.012,2.346,2.346,0,0,1-2.075-2.326,1.032,1.032,0,0,0-2.064,0,4.414,4.414,0,0,0,3.245,4.25v1.032a1.032,1.032,0,0,0,2.064,0v-.969a4.406,4.406,0,0,0-.9-8.718,2.343,2.343,0,1,1,2.343-2.343,1.032,1.032,0,0,0,2.064,0,4.414,4.414,0,0,0-3.5-4.313v-.939a1.032,1.032,0,1,0-2.064,0v1a4.406,4.406,0,0,0,1.161,8.656,2.341,2.341,0,0,1,.086,4.681Zm0,0" transform="translate(-161.732 -128.042)"/><path class="a" d="M104.2,121.453a14.961,14.961,0,1,0,14.961-14.961A14.961,14.961,0,0,0,104.2,121.453Zm14.961-12.9a12.9,12.9,0,1,1-12.9,12.9A12.9,12.9,0,0,1,119.156,108.556Zm0,0" transform="translate(-90.444 -92.758)"/><path class="a" d="M48.76,330.467l-8.082,3.819a6.583,6.583,0,0,0-5.612-3.463l-7.461-.205a7.88,7.88,0,0,1-3.391-.876l-.759-.393a13.391,13.391,0,0,0-12.4.013l.047-1.72a1.032,1.032,0,0,0-1-1.06l-8.181-.225a1.031,1.031,0,0,0-1.059,1L.36,345.313a1.032,1.032,0,0,0,1,1.06l8.181.225h.028a1.032,1.032,0,0,0,1.032-1l.024-.859,2.125-1.138a3.645,3.645,0,0,1,2.721-.3l12.692,3.562.067.017a13.593,13.593,0,0,0,2.789.288,13.766,13.766,0,0,0,5.751-1.255.961.961,0,0,0,.128-.071l18.4-11.9a1.032,1.032,0,0,0,.338-1.374,5.212,5.212,0,0,0-6.883-2.1ZM2.451,344.339l.437-15.891,6.118.168L8.57,344.508Zm33.394-.27a11.7,11.7,0,0,1-7.154.8l-12.658-3.553a5.705,5.705,0,0,0-4.253.465l-1.086.582.291-10.566a11.341,11.341,0,0,1,11.522-.615l.759.393a9.965,9.965,0,0,0,4.283,1.106l7.462.205a4.525,4.525,0,0,1,4.3,3.606L28.2,336.185a1.032,1.032,0,1,0-.057,2.063l12.265.338h.029a1.032,1.032,0,0,0,1.031-1,6.548,6.548,0,0,0-.1-1.339l8.29-3.917.024-.012a3.152,3.152,0,0,1,3.565.5Zm0,0" transform="translate(0 -284.266)"/><path class="a" d="M214.267,10.833v-9.8a1.032,1.032,0,0,0-2.064,0v9.8a1.032,1.032,0,0,0,2.064,0Zm0,0" transform="translate(-184.522)"/><path class="a" d="M274.267,45.675V41.032a1.032,1.032,0,0,0-2.064,0v4.643a1.032,1.032,0,0,0,2.064,0Zm0,0" transform="translate(-236.784 -34.841)"/><path class="a" d="M154.267,45.675V41.032a1.032,1.032,0,1,0-2.064,0v4.643a1.032,1.032,0,1,0,2.064,0Zm0,0" transform="translate(-132.26 -34.841)"/></g></svg>